<?xml version="1.0" standalone="no"?>
<!DOCTYPE svg PUBLIC "-//W3C//DTD SVG 20010904//EN"
 "http://www.w3.org/TR/2001/REC-SVG-20010904/DTD/svg10.dtd">
<svg version="1.0" xmlns="http://www.w3.org/2000/svg"
 width="1504.000000pt" height="1504.000000pt" viewBox="0 0 1504.000000 1504.000000"
 preserveAspectRatio="xMidYMid meet">

<g transform="translate(0.000000,1504.000000) scale(0.100000,-0.100000)"
fill="#000000" stroke="none">
<path d="M7190 15029 c-1562 -65 -3075 -625 -4305 -1593 -451 -356 -917 -821
-1272 -1271 -1315 -1670 -1857 -3799 -1503 -5910 163 -976 532 -1932 1065
-2766 664 -1038 1554 -1887 2625 -2504 303 -175 759 -388 1090 -509 85 -31
165 -61 177 -66 11 -5 110 -36 220 -70 1371 -424 2839 -450 4218 -73 1267 346
2408 1012 3345 1953 1102 1106 1827 2514 2084 4045 267 1591 16 3237 -710
4660 -602 1181 -1522 2199 -2639 2918 -1128 728 -2414 1132 -3775 1187 -269
11 -345 11 -620 -1z m240 -289 c0 -19 7 -20 130 -20 123 0 130 1 130 20 0 11
5 20 10 20 6 0 10 -9 10 -20 0 -19 7 -20 135 -20 113 0 135 2 135 15 0 8 5 15
10 15 6 0 10 -6 10 -14 0 -11 39 -15 203 -19 111 -2 239 -10 285 -17 l82 -13
0 -124 0 -123 130 0 130 0 0 100 c0 81 3 100 15 100 21 0 295 -57 410 -86 191
-48 175 -41 175 -79 l0 -35 113 0 c121 0 174 -12 370 -82 l87 -31 0 -88 0 -89
130 0 130 0 0 35 c0 19 5 35 10 35 6 0 10 -16 10 -35 l0 -35 83 0 c45 0 89 -5
97 -10 10 -7 -16 -10 -82 -10 l-98 0 0 -130 0 -130 135 0 135 0 0 116 c0 74 4
113 10 109 6 -4 10 -53 10 -116 l0 -109 130 0 130 0 0 46 c0 59 24 55 28 -4
l3 -42 68 0 c58 0 79 -5 140 -36 l71 -35 0 -110 0 -109 130 0 130 0 0 25 c0
14 2 25 5 25 3 0 29 -16 58 -35 l52 -35 -43 0 -42 0 0 -135 0 -135 130 0 130
0 0 76 c0 47 4 73 10 69 6 -3 10 -37 10 -76 l0 -69 94 0 94 0 51 -40 51 -40 0
-100 0 -100 121 0 121 0 102 -87 c257 -223 646 -640 897 -963 158 -202 439
-609 439 -635 0 -3 -22 -5 -50 -5 l-50 0 0 -130 0 -130 129 0 c107 0 131 -3
142 -17 10 -11 15 -54 17 -140 l4 -123 60 0 59 0 77 -157 77 -158 3 -132 4
-133 48 0 c37 0 52 -4 59 -17 21 -41 145 -394 192 -550 47 -158 129 -472 144
-555 l7 -38 -81 0 -81 0 0 -130 0 -129 105 -3 c139 -4 139 -22 0 -26 l-105 -3
0 -129 0 -130 130 0 c72 0 130 -1 130 -2 0 -2 6 -53 14 -114 9 -76 12 -166 8
-283 -4 -149 -3 -171 10 -171 23 0 28 -31 28 -177 0 -126 -1 -133 -20 -133
-19 0 -20 -7 -20 -130 0 -123 1 -130 20 -130 18 0 20 -7 20 -77 0 -137 -35
-553 -62 -730 l-10 -73 -124 0 -124 0 0 -130 0 -130 100 0 c82 0 100 -3 100
-15 0 -12 -18 -15 -100 -15 l-100 0 0 -130 0 -130 76 0 c47 0 73 -4 69 -10 -3
-6 -37 -10 -76 -10 l-69 0 0 -135 0 -135 35 0 c19 0 35 -4 35 -10 0 -5 -16
-10 -35 -10 l-35 0 0 -114 c0 -62 -3 -126 -6 -142 l-5 -29 -140 3 -139 3 0
-135 0 -136 90 0 c59 0 90 -4 90 -11 0 -13 -136 -357 -174 -439 l-25 -55 0
103 -1 102 -130 0 -130 0 0 -135 0 -135 115 0 c63 0 115 -2 115 -5 0 -3 -34
-73 -75 -155 l-75 -150 -40 0 -40 0 0 -67 c0 -74 -7 -113 -21 -113 -5 0 -9 41
-9 90 l0 90 -130 0 -130 0 0 -130 0 -130 115 0 114 0 -68 -112 c-146 -243
-356 -551 -474 -695 l-58 -73 -100 0 -99 0 0 -121 0 -122 -70 -81 c-38 -44
-138 -152 -222 -240 l-153 -158 -142 1 -143 2 0 -130 0 -129 -67 -59 c-95 -83
-342 -278 -440 -347 l-83 -58 0 71 0 71 -130 0 -130 0 0 -129 0 -130 43 -3 42
-3 -53 -32 c-29 -18 -54 -33 -57 -33 -3 0 -5 11 -5 25 l0 25 -130 0 -130 0 0
-109 c0 -63 -4 -112 -10 -116 -6 -4 -10 35 -10 109 l0 116 -130 0 -130 0 0
-130 0 -130 90 0 c50 0 90 -4 90 -9 0 -14 -39 -21 -112 -21 l-68 0 0 -40 0
-40 -150 -75 c-82 -41 -152 -75 -155 -75 -3 0 -5 52 -5 115 l0 115 -135 0
-135 0 0 -130 0 -129 102 -3 102 -3 -165 -68 c-341 -142 -682 -255 -1024 -341
l-170 -43 -3 73 -3 74 -129 0 -130 0 0 -100 c0 -82 -3 -100 -15 -100 -12 0
-15 18 -15 100 l0 100 -130 0 -130 0 0 -124 0 -124 -77 -11 c-77 -11 -284 -33
-435 -46 -67 -6 -78 -5 -78 9 0 14 -18 16 -135 16 -128 0 -135 -1 -135 -20 0
-19 -7 -20 -252 -20 -294 0 -715 27 -875 56 l-33 6 0 129 0 129 -130 0 -129 0
-3 -107 c-2 -64 -7 -108 -13 -108 -6 0 -11 44 -13 108 l-3 107 -129 0 -130 0
0 -80 c0 -54 -4 -80 -12 -80 -48 0 -506 123 -730 196 l-138 45 0 105 0 104
-130 0 -129 0 -3 -54 -3 -55 -115 48 c-63 27 -132 56 -152 65 l-38 16 0 130 0
130 -130 0 -130 0 0 -66 c0 -48 -3 -65 -12 -62 -8 3 -14 28 -16 65 l-3 61
-122 4 -122 3 -120 71 c-236 140 -613 393 -757 507 -16 12 -18 32 -18 146 l0
131 -130 0 -130 0 0 -26 0 -26 -42 34 -42 33 32 3 32 3 0 135 0 134 -135 0
-135 0 0 -41 c0 -24 -4 -38 -10 -34 -5 3 -10 22 -10 41 0 33 -1 34 -38 34 -34
0 -46 8 -116 79 l-78 79 1 141 2 141 -127 0 c-169 0 -164 -5 -164 157 l0 123
-99 0 c-56 0 -103 4 -106 10 -4 6 32 10 99 10 l106 0 0 135 0 135 -130 0 -130
0 0 -101 c0 -64 -4 -98 -10 -94 -6 3 -10 48 -10 101 l0 94 -68 0 c-77 0 -64
-11 -167 140 -36 53 -55 91 -55 110 0 23 -5 30 -19 30 -19 0 -71 76 -179 260
-60 103 -182 327 -182 335 0 3 20 5 45 5 l45 0 0 130 0 129 -112 3 -113 3 -62
140 c-34 77 -62 146 -63 153 0 7 13 12 35 12 l35 0 0 130 0 130 -90 0 c-53 0
-90 4 -90 10 0 6 37 10 90 10 l90 0 0 135 0 135 -129 0 c-94 0 -131 -3 -134
-12 -11 -31 -27 77 -27 180 l0 112 -35 0 c-38 0 -31 -17 -79 177 -15 56 -26
109 -26 117 0 13 13 16 70 16 l70 0 0 130 0 130 -100 0 c-82 0 -100 3 -100 15
0 12 18 15 100 15 l100 0 0 130 0 130 -125 0 c-77 0 -125 4 -125 10 0 6 48 10
125 10 l125 0 0 130 0 130 -130 0 -130 0 -1 -77 -2 -78 -8 60 c-24 175 -41
431 -46 687 l-6 288 22 0 c20 0 21 4 21 135 0 113 -2 135 -15 135 -8 0 -15 5
-15 10 0 6 7 10 15 10 13 0 15 28 15 198 -1 235 28 480 96 816 13 65 24 120
24 122 0 2 36 4 80 4 l80 0 0 135 0 135 -45 0 c-25 0 -45 5 -45 11 0 23 87
319 110 374 6 14 9 5 9 -32 l1 -53 130 0 130 0 0 135 0 135 -105 0 c-63 0
-105 4 -105 10 0 6 42 10 105 10 l105 0 0 130 0 130 -50 0 c-27 0 -50 5 -50
10 0 6 23 10 50 10 l50 0 0 123 1 122 77 165 78 165 62 3 62 3 0 107 c0 125 1
127 119 325 l82 137 44 0 45 0 0 68 c0 77 -3 71 175 321 164 229 353 461 375
461 13 0 20 7 20 20 0 24 131 176 312 363 124 128 136 137 171 137 36 0 37 1
37 34 0 36 28 65 235 245 67 58 70 59 73 36 l3 -25 130 0 129 0 0 129 0 130
43 34 c49 41 306 223 358 255 28 17 52 22 102 22 l66 0 3 47 c4 66 28 70 28 4
l0 -51 130 0 129 0 3 131 3 132 145 78 c80 43 148 79 153 79 4 0 7 -29 7 -65
l0 -65 130 0 130 0 0 128 c0 128 0 129 25 140 15 7 76 12 145 12 l119 0 3 52
3 51 140 53 c77 29 143 54 148 54 4 0 7 -47 7 -105 l0 -105 135 0 135 0 0 130
0 130 -52 1 c-38 0 -47 3 -33 9 55 23 351 110 374 110 6 0 11 -20 11 -45 l0
-45 135 0 135 0 0 80 c0 47 4 80 10 80 6 0 10 -33 10 -80 l0 -80 130 0 129 0
3 107 3 108 106 17 c253 39 366 49 556 49 162 -1 193 1 193 13 0 18 33 22 193
24 111 2 117 1 117 -18z"/>
<path d="M6860 14570 l0 -130 130 0 130 0 0 130 0 130 -130 0 -130 0 0 -130z"/>
<path d="M7140 14570 l0 -130 135 0 135 0 0 130 0 130 -135 0 -135 0 0 -130z"/>
<path d="M7430 14570 l0 -130 130 0 130 0 0 130 0 130 -130 0 -130 0 0 -130z"/>
<path d="M7710 14570 l0 -130 135 0 135 0 0 130 0 130 -135 0 -135 0 0 -130z"/>
<path d="M6000 14280 l0 -130 130 0 130 0 0 130 0 130 -130 0 -130 0 0 -130z"/>
<path d="M6290 14280 l0 -130 130 0 130 0 0 130 0 130 -130 0 -130 0 0 -130z"/>
<path d="M6570 14280 l0 -130 130 0 130 0 0 130 0 130 -130 0 -130 0 0 -130z"/>
<path d="M6860 14280 l0 -130 130 0 130 0 0 130 0 130 -130 0 -130 0 0 -130z"/>
<path d="M7430 14280 l0 -130 130 0 130 0 0 130 0 130 -130 0 -130 0 0 -130z"/>
<path d="M8290 14280 l0 -130 130 0 130 0 0 130 0 130 -130 0 -130 0 0 -130z"/>
<path d="M9140 14280 l0 -130 135 0 135 0 0 130 0 130 -135 0 -135 0 0 -130z"/>
<path d="M4860 14000 l0 -130 130 0 130 0 0 130 0 130 -130 0 -130 0 0 -130z"/>
<path d="M6000 14000 l0 -130 130 0 130 0 0 130 0 130 -130 0 -130 0 0 -130z"/>
<path d="M6290 14000 l0 -130 130 0 130 0 0 130 0 130 -130 0 -130 0 0 -130z"/>
<path d="M7140 14000 l0 -130 135 0 135 0 0 130 0 130 -135 0 -135 0 0 -130z"/>
<path d="M8000 14000 l0 -130 130 0 130 0 0 130 0 130 -130 0 -130 0 0 -130z"/>
<path d="M8570 14000 l0 -130 130 0 130 0 0 130 0 130 -130 0 -130 0 0 -130z"/>
<path d="M8860 14000 l0 -130 130 0 130 0 0 130 0 130 -130 0 -130 0 0 -130z"/>
<path d="M9140 14000 l0 -130 135 0 135 0 0 130 0 130 -135 0 -135 0 0 -130z"/>
<path d="M9430 14000 l0 -130 130 0 130 0 0 130 0 130 -130 0 -130 0 0 -130z"/>
<path d="M10000 14000 l0 -130 130 0 130 0 0 130 0 130 -130 0 -130 0 0 -130z"/>
<path d="M4290 13710 l0 -130 130 0 130 0 0 130 0 130 -130 0 -130 0 0 -130z"/>
<path d="M4860 13710 l0 -130 130 0 130 0 0 130 0 130 -130 0 -130 0 0 -130z"/>
<path d="M6290 13710 l0 -130 130 0 130 0 0 130 0 130 -130 0 -130 0 0 -130z"/>
<path d="M6570 13710 l0 -130 130 0 130 0 0 130 0 130 -130 0 -130 0 0 -130z"/>
<path d="M7430 13710 l0 -130 130 0 130 0 0 130 0 130 -130 0 -130 0 0 -130z"/>
<path d="M8000 13710 l0 -130 130 0 130 0 0 130 0 130 -130 0 -130 0 0 -130z"/>
<path d="M8570 13710 l0 -130 130 0 130 0 0 130 0 130 -130 0 -130 0 0 -130z"/>
<path d="M9140 13710 l0 -130 135 0 135 0 0 130 0 130 -135 0 -135 0 0 -130z"/>
<path d="M10570 13710 l0 -130 130 0 130 0 0 130 0 130 -130 0 -130 0 0 -130z"/>
<path d="M3720 13425 l0 -135 130 0 130 0 0 135 0 135 -130 0 -130 0 0 -135z"/>
<path d="M5140 13425 l0 -135 135 0 135 0 0 135 0 135 -135 0 -135 0 0 -135z"/>
<path d="M5714 13547 c-2 -7 -3 -67 -2 -133 l3 -119 133 -3 132 -3 0 136 0
135 -130 0 c-98 0 -132 -3 -136 -13z"/>
<path d="M6000 13425 l0 -135 130 0 130 0 0 135 0 135 -130 0 -130 0 0 -135z"/>
<path d="M6570 13425 l0 -135 130 0 130 0 0 135 0 135 -130 0 -130 0 0 -135z"/>
<path d="M7140 13425 l0 -135 135 0 135 0 0 135 0 135 -135 0 -135 0 0 -135z"/>
<path d="M7710 13425 l0 -135 135 0 135 0 0 135 0 135 -135 0 -135 0 0 -135z"/>
<path d="M8290 13425 l0 -135 130 0 130 0 0 135 0 135 -130 0 -130 0 0 -135z"/>
<path d="M8570 13425 l0 -135 130 0 130 0 0 135 0 135 -130 0 -130 0 0 -135z"/>
<path d="M9430 13425 l0 -135 130 0 130 0 0 135 0 135 -130 0 -130 0 0 -135z"/>
<path d="M9710 13425 l0 -135 135 0 135 0 0 135 0 135 -135 0 -135 0 0 -135z"/>
<path d="M10860 13425 l0 -135 130 0 130 0 0 135 0 135 -130 0 -130 0 0 -135z"/>
<path d="M3720 13140 l0 -130 130 0 130 0 0 130 0 130 -130 0 -130 0 0 -130z"/>
<path d="M4000 13140 l0 -130 130 0 130 0 0 130 0 130 -130 0 -130 0 0 -130z"/>
<path d="M4290 13140 l0 -130 130 0 130 0 0 130 0 130 -130 0 -130 0 0 -130z"/>
<path d="M4860 13140 l0 -130 130 0 130 0 0 130 0 130 -130 0 -130 0 0 -130z"/>
<path d="M5140 13140 l0 -130 135 0 135 0 0 130 0 130 -135 0 -135 0 0 -130z"/>
<path d="M5430 13140 l0 -130 130 0 130 0 0 130 0 130 -130 0 -130 0 0 -130z"/>
<path d="M5710 13140 l0 -130 135 0 135 0 0 130 0 130 -135 0 -135 0 0 -130z"/>
<path d="M6570 13140 l0 -130 130 0 130 0 0 130 0 130 -130 0 -130 0 0 -130z"/>
<path d="M7430 13140 l0 -130 130 0 130 0 0 130 0 130 -130 0 -130 0 0 -130z"/>
<path d="M8570 13140 l0 -130 130 0 130 0 0 130 0 130 -130 0 -130 0 0 -130z"/>
<path d="M8860 13140 l0 -130 130 0 130 0 0 130 0 130 -130 0 -130 0 0 -130z"/>
<path d="M9710 13140 l0 -130 135 0 135 0 0 130 0 130 -135 0 -135 0 0 -130z"/>
<path d="M10000 13140 l0 -130 130 0 130 0 0 130 0 130 -130 0 -130 0 0 -130z"/>
<path d="M10280 13140 l0 -130 135 0 135 0 0 130 0 130 -135 0 -135 0 0 -130z"/>
<path d="M10570 13140 l0 -130 130 0 130 0 0 130 0 130 -130 0 -130 0 0 -130z"/>
<path d="M11140 13140 l0 -130 130 0 130 0 0 130 0 130 -130 0 -130 0 0 -130z"/>
<path d="M11430 13140 l0 -130 130 0 130 0 0 130 0 130 -130 0 -130 0 0 -130z"/>
<path d="M2860 12855 l0 -135 130 0 130 0 0 135 0 135 -130 0 -130 0 0 -135z"/>
<path d="M4860 12855 l0 -135 130 0 130 0 0 135 0 135 -130 0 -130 0 0 -135z"/>
<path d="M5140 12855 l0 -135 135 0 135 0 0 135 0 135 -135 0 -135 0 0 -135z"/>
<path d="M5717 12983 c-4 -3 -7 -64 -7 -135 l0 -128 135 0 135 0 0 135 0 135
-128 0 c-71 0 -132 -3 -135 -7z"/>
<path d="M6000 12855 l0 -135 130 0 130 0 0 135 0 135 -130 0 -130 0 0 -135z"/>
<path d="M6860 12855 l0 -135 130 0 130 0 0 135 0 135 -130 0 -130 0 0 -135z"/>
<path d="M7430 12855 l0 -135 130 0 130 0 0 135 0 135 -130 0 -130 0 0 -135z"/>
<path d="M7710 12855 l0 -135 135 0 135 0 0 135 0 135 -135 0 -135 0 0 -135z"/>
<path d="M8290 12855 l0 -135 130 0 130 0 0 135 0 135 -130 0 -130 0 0 -135z"/>
<path d="M8860 12855 l0 -135 130 0 130 0 0 135 0 135 -130 0 -130 0 0 -135z"/>
<path d="M9140 12855 l0 -135 135 0 136 0 -3 133 -3 132 -132 3 -133 3 0 -136z"/>
<path d="M9710 12855 l0 -135 135 0 135 0 0 135 0 135 -135 0 -135 0 0 -135z"/>
<path d="M10000 12855 l0 -135 130 0 130 0 0 135 0 135 -130 0 -130 0 0 -135z"/>
<path d="M11140 12855 l0 -135 130 0 130 0 0 135 0 135 -130 0 -130 0 0 -135z"/>
<path d="M11430 12855 l0 -135 130 0 130 0 0 135 0 135 -130 0 -130 0 0 -135z"/>
<path d="M11710 12855 l0 -135 135 0 136 0 -3 133 -3 132 -132 3 -133 3 0
-136z"/>
<path d="M12000 12855 l0 -135 130 0 130 0 0 135 0 135 -130 0 -130 0 0 -135z"/>
<path d="M3255 12629 c-324 -43 -605 -243 -748 -532 -123 -247 -135 -524 -35
-776 126 -318 409 -548 740 -601 120 -20 312 -8 422 24 333 99 569 341 668
683 31 107 33 358 4 473 -79 309 -292 551 -588 669 -137 54 -324 79 -463 60z
m323 -294 c106 -34 193 -87 278 -170 80 -79 133 -163 172 -274 24 -70 27 -89
27 -226 -1 -140 -3 -155 -29 -223 -81 -214 -227 -358 -435 -429 -58 -20 -103
-27 -188 -31 -140 -6 -232 13 -351 73 -419 210 -509 769 -177 1100 115 114
242 182 385 205 87 14 230 3 318 -25z"/>
<path d="M3270 12066 c-123 -36 -218 -116 -270 -227 -114 -245 37 -524 310
-571 210 -36 416 111 460 327 48 236 -134 469 -378 481 -46 2 -95 -2 -122 -10z"/>
<path d="M11562 12629 c-154 -19 -289 -68 -418 -155 -204 -135 -347 -337 -406
-570 -30 -119 -32 -331 -5 -448 81 -343 335 -612 673 -711 111 -33 302 -44
421 -25 389 62 700 360 790 754 25 111 22 308 -6 421 -92 362 -382 645 -741
720 -91 19 -222 25 -308 14z m303 -290 c121 -37 202 -86 296 -179 100 -100
157 -199 189 -331 39 -163 21 -312 -56 -469 -39 -79 -62 -110 -133 -180 -69
-69 -103 -94 -171 -127 -349 -169 -766 -37 -935 297 -70 138 -94 325 -61 474
60 266 282 481 551 532 93 18 231 11 320 -17z"/>
<path d="M11569 12066 c-201 -56 -335 -260 -300 -458 48 -275 342 -425 587
-301 150 76 232 224 221 397 -17 249 -267 428 -508 362z"/>
<path d="M4902 12503 l3 -128 125 0 125 0 3 128 3 127 -131 0 -131 0 3 -127z"/>
<path d="M5460 12500 l0 -130 125 0 125 0 0 130 0 130 -125 0 -125 0 0 -130z"/>
<path d="M5732 12503 l3 -128 125 0 125 0 3 128 3 127 -131 0 -131 0 3 -127z"/>
<path d="M6010 12500 l0 -130 125 0 125 0 0 130 0 130 -125 0 -125 0 0 -130z"/>
<path d="M6562 12503 l3 -128 125 0 125 0 3 128 3 127 -131 0 -131 0 3 -127z"/>
<path d="M7670 12500 l0 -130 125 0 125 0 0 130 0 130 -125 0 -125 0 0 -130z"/>
<path d="M7950 12500 l0 -130 125 0 125 0 0 130 0 130 -125 0 -125 0 0 -130z"/>
<path d="M8222 12503 l3 -128 125 0 125 0 3 128 3 127 -131 0 -131 0 3 -127z"/>
<path d="M9610 12500 l0 -130 125 0 125 0 0 130 0 130 -125 0 -125 0 0 -130z"/>
<path d="M4630 12225 l0 -125 125 0 125 0 0 125 0 125 -125 0 -125 0 0 -125z"/>
<path d="M5180 12225 l0 -125 125 0 125 0 0 125 0 125 -125 0 -125 0 0 -125z"/>
<path d="M6010 12225 l0 -125 125 0 125 0 0 125 0 125 -125 0 -125 0 0 -125z"/>
<path d="M6290 12225 l0 -125 125 0 125 0 0 125 0 125 -125 0 -125 0 0 -125z"/>
<path d="M6840 12225 l0 -125 125 0 125 0 0 125 0 125 -125 0 -125 0 0 -125z"/>
<path d="M7120 12225 l0 -125 125 0 125 0 0 125 0 125 -125 0 -125 0 0 -125z"/>
<path d="M7670 12225 l0 -125 125 0 125 0 0 125 0 125 -125 0 -125 0 0 -125z"/>
<path d="M8220 12225 l0 -125 130 0 130 0 0 125 0 125 -130 0 -130 0 0 -125z"/>
<path d="M9330 12225 l0 -125 125 0 125 0 0 125 0 125 -125 0 -125 0 0 -125z"/>
<path d="M9610 12225 l0 -125 125 0 125 0 0 125 0 125 -125 0 -125 0 0 -125z"/>
<path d="M10160 12225 l0 -125 125 0 125 0 0 125 0 125 -125 0 -125 0 0 -125z"/>
<path d="M4630 11945 l0 -125 125 0 125 0 0 125 0 125 -125 0 -125 0 0 -125z"/>
<path d="M4900 11945 l0 -125 130 0 130 0 0 125 0 125 -130 0 -130 0 0 -125z"/>
<path d="M5180 11945 l0 -125 125 0 125 0 0 125 0 125 -125 0 -125 0 0 -125z"/>
<path d="M5460 11945 l0 -125 125 0 125 0 0 125 0 125 -125 0 -125 0 0 -125z"/>
<path d="M6010 11945 l0 -125 125 0 125 0 0 125 0 125 -125 0 -125 0 0 -125z"/>
<path d="M6290 11945 l0 -125 125 0 125 0 0 125 0 125 -125 0 -125 0 0 -125z"/>
<path d="M6560 11945 l0 -125 130 0 130 0 0 125 0 125 -130 0 -130 0 0 -125z"/>
<path d="M7120 11945 l0 -125 125 0 125 0 0 125 0 125 -125 0 -125 0 0 -125z"/>
<path d="M7670 11945 l0 -125 125 0 125 0 0 125 0 125 -125 0 -125 0 0 -125z"/>
<path d="M7950 11945 l0 -125 125 0 125 0 0 125 0 125 -125 0 -125 0 0 -125z"/>
<path d="M8220 11945 l0 -125 130 0 130 0 0 125 0 125 -130 0 -130 0 0 -125z"/>
<path d="M8500 11945 l0 -125 125 0 125 0 0 125 0 125 -125 0 -125 0 0 -125z"/>
<path d="M9050 11945 l0 -125 130 0 130 0 0 125 0 125 -130 0 -130 0 0 -125z"/>
<path d="M9330 11945 l0 -125 125 0 125 0 0 125 0 125 -125 0 -125 0 0 -125z"/>
<path d="M1770 11765 l0 -135 130 0 130 0 0 135 0 135 -130 0 -130 0 0 -135z"/>
<path d="M2057 11893 c-4 -3 -7 -64 -7 -135 l0 -128 135 0 135 0 0 135 0 135
-128 0 c-71 0 -132 -3 -135 -7z"/>
<path d="M12727 11893 c-4 -3 -7 -64 -7 -135 l0 -128 135 0 135 0 0 135 0 135
-128 0 c-71 0 -132 -3 -135 -7z"/>
<path d="M4630 11670 l0 -130 125 0 125 0 0 130 0 130 -125 0 -125 0 0 -130z"/>
<path d="M6290 11670 l0 -130 125 0 125 0 0 130 0 130 -125 0 -125 0 0 -130z"/>
<path d="M6562 11673 l3 -128 125 0 125 0 3 128 3 127 -131 0 -131 0 3 -127z"/>
<path d="M6840 11670 l0 -130 125 0 125 0 0 130 0 130 -125 0 -125 0 0 -130z"/>
<path d="M7670 11670 l0 -130 125 0 125 0 0 130 0 130 -125 0 -125 0 0 -130z"/>
<path d="M7950 11670 l0 -130 125 0 125 0 0 130 0 130 -125 0 -125 0 0 -130z"/>
<path d="M8222 11673 l3 -128 128 -3 127 -3 0 131 0 130 -130 0 -131 0 3 -127z"/>
<path d="M9052 11673 l3 -128 128 -3 127 -3 0 131 0 130 -130 0 -131 0 3 -127z"/>
<path d="M9330 11670 l0 -130 125 0 125 0 0 130 0 130 -125 0 -125 0 0 -130z"/>
<path d="M9610 11670 l0 -130 125 0 125 0 0 130 0 130 -125 0 -125 0 0 -130z"/>
<path d="M9884 11787 c-2 -7 -3 -65 -2 -128 l3 -114 128 -3 127 -3 0 131 0
130 -125 0 c-94 0 -127 -3 -131 -13z"/>
<path d="M13010 11480 l0 -130 130 0 130 0 0 130 0 130 -130 0 -130 0 0 -130z"/>
<path d="M4900 11395 l0 -125 130 0 130 0 0 125 0 125 -130 0 -130 0 0 -125z"/>
<path d="M5180 11395 l0 -125 125 0 125 0 0 125 0 125 -125 0 -125 0 0 -125z"/>
<path d="M5460 11395 l0 -125 125 0 125 0 0 125 0 125 -125 0 -125 0 0 -125z"/>
<path d="M5730 11395 l0 -125 130 0 130 0 0 125 0 125 -130 0 -130 0 0 -125z"/>
<path d="M6010 11395 l0 -125 125 0 125 0 0 125 0 125 -125 0 -125 0 0 -125z"/>
<path d="M6560 11395 l0 -125 130 0 130 0 0 125 0 125 -130 0 -130 0 0 -125z"/>
<path d="M6840 11395 l0 -125 125 0 125 0 0 125 0 125 -125 0 -125 0 0 -125z"/>
<path d="M7120 11395 l0 -125 125 0 125 0 0 125 0 125 -125 0 -125 0 0 -125z"/>
<path d="M7670 11395 l0 -125 125 0 125 0 0 125 0 125 -125 0 -125 0 0 -125z"/>
<path d="M8220 11395 l0 -125 130 0 130 0 0 125 0 125 -130 0 -130 0 0 -125z"/>
<path d="M8780 11395 l0 -125 125 0 125 0 0 125 0 125 -125 0 -125 0 0 -125z"/>
<path d="M9050 11395 l0 -125 130 0 130 0 0 125 0 125 -130 0 -130 0 0 -125z"/>
<path d="M9610 11395 l0 -125 125 0 125 0 0 125 0 125 -125 0 -125 0 0 -125z"/>
<path d="M10160 11395 l0 -125 125 0 125 0 0 125 0 125 -125 0 -125 0 0 -125z"/>
<path d="M2050 11190 l0 -130 135 0 135 0 0 130 0 130 -135 0 -135 0 0 -130z"/>
<path d="M4900 11115 l0 -125 130 0 130 0 0 125 0 125 -130 0 -130 0 0 -125z"/>
<path d="M5180 11115 l0 -125 125 0 125 0 0 125 0 125 -125 0 -125 0 0 -125z"/>
<path d="M6010 11115 l0 -125 125 0 125 0 0 125 0 125 -125 0 -125 0 0 -125z"/>
<path d="M6290 11115 l0 -125 125 0 125 0 0 125 0 125 -125 0 -125 0 0 -125z"/>
<path d="M6560 11115 l0 -125 130 0 130 0 0 125 0 125 -130 0 -130 0 0 -125z"/>
<path d="M7390 11115 l0 -125 130 0 130 0 0 125 0 125 -130 0 -130 0 0 -125z"/>
<path d="M7670 11115 l0 -125 125 0 125 0 0 125 0 125 -125 0 -125 0 0 -125z"/>
<path d="M7950 11115 l0 -125 125 0 125 0 0 125 0 125 -125 0 -125 0 0 -125z"/>
<path d="M9050 11115 l0 -125 130 0 130 0 0 125 0 125 -130 0 -130 0 0 -125z"/>
<path d="M9330 11115 l0 -125 125 0 125 0 0 125 0 125 -125 0 -125 0 0 -125z"/>
<path d="M9610 11115 l0 -125 125 0 125 0 0 125 0 125 -125 0 -125 0 0 -125z"/>
<path d="M10160 11115 l0 -125 125 0 125 0 0 125 0 125 -125 0 -125 0 0 -125z"/>
<path d="M1200 10910 l0 -130 130 0 130 0 0 130 0 130 -130 0 -130 0 0 -130z"/>
<path d="M1480 10910 l0 -130 135 0 135 0 0 130 0 130 -135 0 -135 0 0 -130z"/>
<path d="M1770 10910 l0 -130 130 0 130 0 0 130 0 130 -130 0 -130 0 0 -130z"/>
<path d="M12720 10910 l0 -130 135 0 135 0 0 130 0 130 -135 0 -135 0 0 -130z"/>
<path d="M13010 10910 l0 -130 130 0 130 0 0 130 0 130 -130 0 -130 0 0 -130z"/>
<path d="M4620 10845 l0 -135 135 0 135 0 0 135 0 135 -135 0 -135 0 0 -135z"/>
<path d="M5172 10843 l3 -138 133 -3 132 -3 0 141 0 140 -135 0 -136 0 3 -137z"/>
<path d="M5724 10967 c-2 -7 -3 -69 -2 -138 l3 -124 135 0 135 0 0 135 0 135
-133 3 c-103 2 -134 0 -138 -11z"/>
<path d="M6280 10845 l0 -135 135 0 135 0 0 135 0 135 -135 0 -135 0 0 -135z"/>
<path d="M6832 10843 l3 -138 133 -3 132 -3 0 141 0 140 -135 0 -136 0 3 -137z"/>
<path d="M7390 10840 l0 -141 133 3 132 3 0 135 0 135 -132 3 -133 3 0 -141z"/>
<path d="M7940 10840 l0 -140 135 0 135 0 0 140 0 140 -135 0 -135 0 0 -140z"/>
<path d="M8490 10845 l0 -135 135 0 135 0 0 135 0 135 -135 0 -135 0 0 -135z"/>
<path d="M9050 10840 l0 -141 133 3 132 3 3 138 3 137 -136 0 -135 0 0 -140z"/>
<path d="M9600 10845 l0 -135 135 0 135 0 0 135 0 135 -135 0 -135 0 0 -135z"/>
<path d="M10152 10843 l3 -138 133 -3 132 -3 0 141 0 140 -135 0 -136 0 3
-137z"/>
<path d="M1200 10620 l0 -130 130 0 130 0 0 130 0 130 -130 0 -130 0 0 -130z"/>
<path d="M1480 10620 l0 -130 135 0 135 0 0 130 0 130 -135 0 -135 0 0 -130z"/>
<path d="M13010 10620 l0 -130 130 0 130 0 0 130 0 130 -130 0 -130 0 0 -130z"/>
<path d="M13580 10620 l0 -130 130 0 130 0 0 130 0 130 -130 0 -130 0 0 -130z"/>
<path d="M5180 10565 l0 -125 125 0 125 0 0 125 0 125 -125 0 -125 0 0 -125z"/>
<path d="M5460 10565 l0 -125 125 0 125 0 0 125 0 125 -125 0 -125 0 0 -125z"/>
<path d="M5730 10565 l0 -125 130 0 130 0 0 125 0 125 -130 0 -130 0 0 -125z"/>
<path d="M6010 10565 l0 -125 125 0 125 0 0 125 0 125 -125 0 -125 0 0 -125z"/>
<path d="M6840 10565 l0 -125 125 0 125 0 0 125 0 125 -125 0 -125 0 0 -125z"/>
<path d="M7120 10565 l0 -125 125 0 125 0 0 125 0 125 -125 0 -125 0 0 -125z"/>
<path d="M7390 10565 l0 -125 130 0 130 0 0 125 0 125 -130 0 -130 0 0 -125z"/>
<path d="M7670 10565 l0 -125 125 0 125 0 0 125 0 125 -125 0 -125 0 0 -125z"/>
<path d="M7950 10565 l0 -125 125 0 125 0 0 125 0 125 -125 0 -125 0 0 -125z"/>
<path d="M8220 10565 l0 -125 130 0 130 0 0 125 0 125 -130 0 -130 0 0 -125z"/>
<path d="M9050 10565 l0 -125 130 0 130 0 0 125 0 125 -130 0 -130 0 0 -125z"/>
<path d="M9330 10565 l0 -125 125 0 125 0 0 125 0 125 -125 0 -125 0 0 -125z"/>
<path d="M9880 10565 l0 -125 130 0 130 0 0 125 0 125 -130 0 -130 0 0 -125z"/>
<path d="M10160 10565 l0 -125 125 0 125 0 0 125 0 125 -125 0 -125 0 0 -125z"/>
<path d="M910 10335 l0 -135 130 0 130 0 0 135 0 135 -130 0 -130 0 0 -135z"/>
<path d="M1200 10335 l0 -135 130 0 130 0 0 135 0 135 -130 0 -130 0 0 -135z"/>
<path d="M1480 10335 l0 -136 133 3 132 3 3 133 3 132 -136 0 -135 0 0 -135z"/>
<path d="M1770 10335 l0 -135 130 0 130 0 0 135 0 135 -130 0 -130 0 0 -135z"/>
<path d="M2052 10338 l3 -133 133 -3 132 -3 0 136 0 135 -135 0 -136 0 3 -132z"/>
<path d="M13580 10335 l0 -135 130 0 130 0 0 135 0 135 -130 0 -130 0 0 -135z"/>
<path d="M13870 10335 l0 -135 130 0 130 0 0 135 0 135 -130 0 -130 0 0 -135z"/>
<path d="M4060 10285 l0 -135 135 0 135 0 0 135 0 135 -135 0 -135 0 0 -135z"/>
<path d="M2970 10285 l0 -125 125 0 125 0 0 125 0 125 -125 0 -125 0 0 -125z"/>
<path d="M5180 10285 l0 -125 125 0 125 0 0 125 0 125 -125 0 -125 0 0 -125z"/>
<path d="M5460 10285 l0 -125 125 0 125 0 0 125 0 125 -125 0 -125 0 0 -125z"/>
<path d="M6010 10285 l0 -125 125 0 125 0 0 125 0 125 -125 0 -125 0 0 -125z"/>
<path d="M6290 10285 l0 -125 125 0 125 0 0 125 0 125 -125 0 -125 0 0 -125z"/>
<path d="M6560 10285 l0 -125 130 0 130 0 0 125 0 125 -130 0 -130 0 0 -125z"/>
<path d="M7120 10285 l0 -125 125 0 125 0 0 125 0 125 -125 0 -125 0 0 -125z"/>
<path d="M7950 10285 l0 -125 125 0 125 0 0 125 0 125 -125 0 -125 0 0 -125z"/>
<path d="M8220 10285 l0 -125 130 0 130 0 0 125 0 125 -130 0 -130 0 0 -125z"/>
<path d="M9330 10285 l0 -125 125 0 125 0 0 125 0 125 -125 0 -125 0 0 -125z"/>
<path d="M10160 10285 l0 -125 125 0 125 0 0 125 0 125 -125 0 -125 0 0 -125z"/>
<path d="M10440 10285 l0 -125 125 0 125 0 0 125 0 125 -125 0 -125 0 0 -125z"/>
<path d="M10990 10285 l0 -125 130 0 131 0 -3 123 -3 122 -127 3 -128 3 0
-126z"/>
<path d="M11270 10285 l0 -125 125 0 125 0 0 125 0 125 -125 0 -125 0 0 -125z"/>
<path d="M11540 10285 l0 -125 130 0 130 0 0 125 0 125 -130 0 -130 0 0 -125z"/>
<path d="M11820 10285 l0 -125 130 0 130 0 0 125 0 125 -130 0 -130 0 0 -125z"/>
<path d="M12100 10285 l0 -125 125 0 125 0 0 125 0 125 -125 0 -125 0 0 -125z"/>
<path d="M910 10050 l0 -130 130 0 130 0 0 130 0 130 -130 0 -130 0 0 -130z"/>
<path d="M1200 10050 l0 -130 130 0 130 0 0 130 0 130 -130 0 -130 0 0 -130z"/>
<path d="M1770 10050 l0 -130 130 0 130 0 0 130 0 130 -130 0 -130 0 0 -130z"/>
<path d="M2050 10050 l0 -130 135 0 135 0 0 130 0 130 -135 0 -135 0 0 -130z"/>
<path d="M12720 10050 l0 -130 135 0 135 0 0 130 0 130 -135 0 -135 0 0 -130z"/>
<path d="M13010 10050 l0 -130 130 0 130 0 0 130 0 130 -130 0 -130 0 0 -130z"/>
<path d="M13300 10050 l0 -130 130 0 130 0 0 130 0 130 -130 0 -130 0 0 -130z"/>
<path d="M2690 10010 l0 -130 125 0 125 0 0 130 0 130 -125 0 -125 0 0 -130z"/>
<path d="M3240 10010 l0 -131 128 3 127 3 0 125 0 125 -127 3 -128 3 0 -131z"/>
<path d="M4350 10010 l0 -130 125 0 125 0 0 130 0 130 -125 0 -125 0 0 -130z"/>
<path d="M4630 10010 l0 -130 125 0 125 0 0 130 0 130 -125 0 -125 0 0 -130z"/>
<path d="M4900 10010 l0 -131 128 3 127 3 3 128 3 127 -131 0 -130 0 0 -130z"/>
<path d="M5732 10013 l3 -128 125 0 125 0 3 128 3 127 -131 0 -131 0 3 -127z"/>
<path d="M6010 10010 l0 -130 125 0 125 0 0 130 0 130 -125 0 -125 0 0 -130z"/>
<path d="M6562 10013 l3 -128 128 -3 127 -3 0 131 0 130 -130 0 -131 0 3 -127z"/>
<path d="M7120 10010 l0 -130 125 0 125 0 0 130 0 130 -125 0 -125 0 0 -130z"/>
<path d="M8780 10010 l0 -130 125 0 125 0 0 130 0 130 -125 0 -125 0 0 -130z"/>
<path d="M9054 10127 c-2 -7 -3 -65 -2 -128 l3 -114 128 -3 127 -3 0 131 0
130 -125 0 c-94 0 -127 -3 -131 -13z"/>
<path d="M9330 10010 l0 -130 125 0 125 0 0 130 0 130 -125 0 -125 0 0 -130z"/>
<path d="M10440 10010 l0 -130 125 0 125 0 0 130 0 130 -125 0 -125 0 0 -130z"/>
<path d="M10714 10127 c-2 -7 -3 -65 -2 -128 l3 -114 128 -3 127 -3 0 131 0
130 -125 0 c-94 0 -127 -3 -131 -13z"/>
<path d="M10990 10010 l0 -131 128 3 127 3 0 125 0 125 -127 3 -128 3 0 -131z"/>
<path d="M11545 10118 c-3 -13 -5 -70 -3 -128 l3 -105 128 -3 127 -3 0 131 0
130 -125 0 c-121 0 -125 -1 -130 -22z"/>
<path d="M12100 10010 l0 -130 125 0 125 0 0 130 0 130 -125 0 -125 0 0 -130z"/>
<path d="M12380 10010 l0 -130 125 0 125 0 0 130 0 130 -125 0 -125 0 0 -130z"/>
<path d="M1200 9765 l0 -135 130 0 130 0 0 135 0 135 -130 0 -130 0 0 -135z"/>
<path d="M1770 9765 l0 -135 130 0 130 0 0 135 0 135 -130 0 -130 0 0 -135z"/>
<path d="M2050 9765 l0 -135 135 0 135 0 0 135 0 135 -135 0 -135 0 0 -135z"/>
<path d="M12720 9765 l0 -135 135 0 135 0 0 135 0 135 -135 0 -135 0 0 -135z"/>
<path d="M13010 9765 l0 -135 130 0 130 0 0 135 0 135 -130 0 -130 0 0 -135z"/>
<path d="M13580 9765 l0 -135 130 0 130 0 0 135 0 135 -130 0 -130 0 0 -135z"/>
<path d="M13870 9765 l0 -135 130 0 130 0 0 135 0 135 -130 0 -130 0 0 -135z"/>
<path d="M4060 9735 l0 -135 135 0 135 0 0 135 0 135 -135 0 -135 0 0 -135z"/>
<path d="M2410 9735 l0 -125 130 0 130 0 0 125 0 125 -130 0 -130 0 0 -125z"/>
<path d="M2690 9735 l0 -125 125 0 125 0 0 125 0 125 -125 0 -125 0 0 -125z"/>
<path d="M2970 9735 l0 -125 125 0 125 0 0 125 0 125 -125 0 -125 0 0 -125z"/>
<path d="M3520 9735 l0 -125 125 0 125 0 0 125 0 125 -125 0 -125 0 0 -125z"/>
<path d="M4630 9735 l0 -125 125 0 125 0 0 125 0 125 -125 0 -125 0 0 -125z"/>
<path d="M6840 9735 l0 -125 125 0 125 0 0 125 0 125 -125 0 -125 0 0 -125z"/>
<path d="M7390 9735 l0 -125 130 0 130 0 0 125 0 125 -130 0 -130 0 0 -125z"/>
<path d="M8780 9735 l0 -125 125 0 125 0 0 125 0 125 -125 0 -125 0 0 -125z"/>
<path d="M9880 9735 l0 -125 130 0 130 0 0 125 0 125 -130 0 -130 0 0 -125z"/>
<path d="M10440 9735 l0 -125 125 0 125 0 0 125 0 125 -125 0 -125 0 0 -125z"/>
<path d="M10717 9853 c-4 -3 -7 -60 -7 -125 l0 -118 130 0 130 0 0 125 0 125
-123 0 c-68 0 -127 -3 -130 -7z"/>
<path d="M11820 9735 l0 -125 130 0 130 0 0 125 0 125 -130 0 -130 0 0 -125z"/>
<path d="M12380 9735 l0 -125 125 0 125 0 0 125 0 125 -125 0 -125 0 0 -125z"/>
<path d="M630 9480 l0 -130 130 0 130 0 0 130 0 130 -130 0 -130 0 0 -130z"/>
<path d="M910 9480 l0 -130 130 0 130 0 0 130 0 130 -130 0 -130 0 0 -130z"/>
<path d="M1200 9480 l0 -130 130 0 130 0 0 130 0 130 -130 0 -130 0 0 -130z"/>
<path d="M1770 9480 l0 -130 130 0 130 0 0 130 0 130 -130 0 -130 0 0 -130z"/>
<path d="M13300 9480 l0 -130 130 0 130 0 0 130 0 130 -130 0 -130 0 0 -130z"/>
<path d="M13870 9480 l0 -130 130 0 130 0 0 130 0 130 -130 0 -130 0 0 -130z"/>
<path d="M2970 9455 l0 -125 125 0 125 0 0 125 0 125 -125 0 -125 0 0 -125z"/>
<path d="M3240 9455 l0 -125 130 0 130 0 0 125 0 125 -130 0 -130 0 0 -125z"/>
<path d="M3520 9455 l0 -125 125 0 125 0 0 125 0 125 -125 0 -125 0 0 -125z"/>
<path d="M3800 9455 l0 -125 125 0 125 0 0 125 0 125 -125 0 -125 0 0 -125z"/>
<path d="M4630 9455 l0 -125 125 0 125 0 0 125 0 125 -125 0 -125 0 0 -125z"/>
<path d="M5460 9455 l0 -125 125 0 125 0 0 125 0 125 -125 0 -125 0 0 -125z"/>
<path d="M6010 9455 l0 -125 125 0 125 0 0 125 0 125 -125 0 -125 0 0 -125z"/>
<path d="M6290 9455 l0 -125 125 0 125 0 0 125 0 125 -125 0 -125 0 0 -125z"/>
<path d="M7120 9455 l0 -125 125 0 125 0 0 125 0 125 -125 0 -125 0 0 -125z"/>
<path d="M7390 9455 l0 -125 130 0 130 0 0 125 0 125 -130 0 -130 0 0 -125z"/>
<path d="M7670 9455 l0 -125 125 0 125 0 0 125 0 125 -125 0 -125 0 0 -125z"/>
<path d="M7950 9455 l0 -125 125 0 125 0 0 125 0 125 -125 0 -125 0 0 -125z"/>
<path d="M8220 9455 l0 -125 130 0 130 0 0 125 0 125 -130 0 -130 0 0 -125z"/>
<path d="M8780 9455 l0 -125 125 0 125 0 0 125 0 125 -125 0 -125 0 0 -125z"/>
<path d="M9610 9455 l0 -125 125 0 125 0 0 125 0 125 -125 0 -125 0 0 -125z"/>
<path d="M9880 9455 l0 -125 130 0 130 0 0 125 0 125 -130 0 -130 0 0 -125z"/>
<path d="M10160 9455 l0 -125 125 0 125 0 0 125 0 125 -125 0 -125 0 0 -125z"/>
<path d="M10990 9455 l0 -125 130 0 131 0 -3 123 -3 122 -127 3 -128 3 0 -126z"/>
<path d="M11270 9455 l0 -125 125 0 125 0 0 125 0 125 -125 0 -125 0 0 -125z"/>
<path d="M11547 9573 c-4 -3 -7 -60 -7 -125 l0 -118 130 0 130 0 0 125 0 125
-123 0 c-68 0 -127 -3 -130 -7z"/>
<path d="M12100 9455 l0 -125 125 0 125 0 0 125 0 125 -125 0 -125 0 0 -125z"/>
<path d="M12380 9455 l0 -125 125 0 125 0 0 125 0 125 -125 0 -125 0 0 -125z"/>
<path d="M910 9195 l0 -135 130 0 130 0 0 135 0 135 -130 0 -130 0 0 -135z"/>
<path d="M1487 9324 c-4 -4 -7 -65 -7 -136 l0 -128 135 0 136 0 -3 133 -3 132
-126 3 c-69 1 -128 -1 -132 -4z"/>
<path d="M1770 9195 l0 -135 130 0 130 0 0 135 0 135 -130 0 -130 0 0 -135z"/>
<path d="M12727 9323 c-4 -3 -7 -64 -7 -135 l0 -128 135 0 135 0 0 135 0 135
-128 0 c-71 0 -132 -3 -135 -7z"/>
<path d="M13010 9195 l0 -135 130 0 130 0 0 135 0 135 -130 0 -130 0 0 -135z"/>
<path d="M13580 9195 l0 -135 130 0 130 0 0 135 0 135 -130 0 -130 0 0 -135z"/>
<path d="M13870 9195 l0 -135 130 0 130 0 0 135 0 135 -130 0 -130 0 0 -135z"/>
<path d="M4064 9307 c-2 -7 -3 -69 -2 -138 l3 -124 133 -3 132 -3 0 141 0 140
-130 0 c-98 0 -132 -3 -136 -13z"/>
<path d="M2410 9180 l0 -131 128 3 127 3 0 125 0 125 -127 3 -128 3 0 -131z"/>
<path d="M2690 9180 l0 -130 125 0 125 0 0 130 0 130 -125 0 -125 0 0 -130z"/>
<path d="M2970 9180 l0 -130 125 0 125 0 0 130 0 130 -125 0 -125 0 0 -130z"/>
<path d="M3520 9180 l0 -130 125 0 125 0 0 130 0 130 -125 0 -125 0 0 -130z"/>
<path d="M4630 9180 l0 -130 125 0 125 0 0 130 0 130 -125 0 -125 0 0 -130z"/>
<path d="M4900 9180 l0 -131 128 3 127 3 0 125 0 125 -127 3 -128 3 0 -131z"/>
<path d="M5460 9180 l0 -130 125 0 125 0 0 130 0 130 -125 0 -125 0 0 -130z"/>
<path d="M5730 9180 l0 -130 130 0 130 0 0 130 0 130 -130 0 -130 0 0 -130z"/>
<path d="M6010 9180 l0 -130 125 0 125 0 0 130 0 130 -125 0 -125 0 0 -130z"/>
<path d="M6290 9180 l0 -130 125 0 125 0 0 130 0 130 -125 0 -125 0 0 -130z"/>
<path d="M7120 9180 l0 -130 125 0 125 0 0 130 0 130 -125 0 -125 0 0 -130z"/>
<path d="M7670 9180 l0 -130 125 0 125 0 0 130 0 130 -125 0 -125 0 0 -130z"/>
<path d="M7950 9180 l0 -130 125 0 125 0 0 130 0 130 -125 0 -125 0 0 -130z"/>
<path d="M8224 9297 c-2 -7 -3 -65 -2 -128 l3 -114 128 -3 127 -3 0 131 0 130
-125 0 c-94 0 -127 -3 -131 -13z"/>
<path d="M8500 9180 l0 -130 125 0 125 0 0 130 0 130 -125 0 -125 0 0 -130z"/>
<path d="M8780 9180 l0 -130 125 0 125 0 0 130 0 130 -125 0 -125 0 0 -130z"/>
<path d="M9054 9297 c-2 -7 -3 -65 -2 -128 l3 -114 128 -3 127 -3 0 131 0 130
-125 0 c-94 0 -127 -3 -131 -13z"/>
<path d="M10160 9180 l0 -130 125 0 125 0 0 130 0 130 -125 0 -125 0 0 -130z"/>
<path d="M10714 9297 c-2 -7 -3 -65 -2 -128 l3 -114 128 -3 127 -3 0 131 0
130 -125 0 c-94 0 -127 -3 -131 -13z"/>
<path d="M10990 9180 l0 -131 128 3 127 3 0 125 0 125 -127 3 -128 3 0 -131z"/>
<path d="M910 8910 l0 -130 130 0 130 0 0 130 0 130 -130 0 -130 0 0 -130z"/>
<path d="M1200 8910 l0 -130 130 0 130 0 0 130 0 130 -130 0 -130 0 0 -130z"/>
<path d="M1480 8910 l0 -130 135 0 135 0 0 130 0 130 -135 0 -135 0 0 -130z"/>
<path d="M13010 8910 l0 -130 130 0 130 0 0 130 0 130 -130 0 -130 0 0 -130z"/>
<path d="M14150 8910 l0 -130 135 0 135 0 0 130 0 130 -135 0 -135 0 0 -130z"/>
<path d="M2690 8905 l0 -125 125 0 125 0 0 125 0 125 -125 0 -125 0 0 -125z"/>
<path d="M2970 8905 l0 -125 125 0 125 0 0 125 0 125 -125 0 -125 0 0 -125z"/>
<path d="M3240 8905 l0 -125 130 0 130 0 0 125 0 125 -130 0 -130 0 0 -125z"/>
<path d="M3520 8905 l0 -125 125 0 125 0 0 125 0 125 -125 0 -125 0 0 -125z"/>
<path d="M4350 8905 l0 -125 125 0 125 0 0 125 0 125 -125 0 -125 0 0 -125z"/>
<path d="M4900 8905 l0 -125 130 0 130 0 0 125 0 125 -130 0 -130 0 0 -125z"/>
<path d="M5730 8905 l0 -125 130 0 130 0 0 125 0 125 -130 0 -130 0 0 -125z"/>
<path d="M6840 8905 l0 -125 125 0 125 0 0 125 0 125 -125 0 -125 0 0 -125z"/>
<path d="M7120 8905 l0 -125 125 0 125 0 0 125 0 125 -125 0 -125 0 0 -125z"/>
<path d="M7390 8905 l0 -125 130 0 130 0 0 125 0 125 -130 0 -130 0 0 -125z"/>
<path d="M8220 8905 l0 -125 130 0 130 0 0 125 0 125 -130 0 -130 0 0 -125z"/>
<path d="M8500 8905 l0 -125 125 0 125 0 0 125 0 125 -125 0 -125 0 0 -125z"/>
<path d="M8780 8905 l0 -125 125 0 125 0 0 125 0 125 -125 0 -125 0 0 -125z"/>
<path d="M9050 8905 l0 -125 130 0 130 0 0 125 0 125 -130 0 -130 0 0 -125z"/>
<path d="M9610 8905 l0 -125 125 0 125 0 0 125 0 125 -125 0 -125 0 0 -125z"/>
<path d="M9880 8905 l0 -125 130 0 130 0 0 125 0 125 -130 0 -130 0 0 -125z"/>
<path d="M10160 8905 l0 -125 125 0 125 0 0 125 0 125 -125 0 -125 0 0 -125z"/>
<path d="M10440 8905 l0 -125 125 0 125 0 0 125 0 125 -125 0 -125 0 0 -125z"/>
<path d="M10717 9023 c-4 -3 -7 -60 -7 -125 l0 -118 130 0 130 0 0 125 0 125
-123 0 c-68 0 -127 -3 -130 -7z"/>
<path d="M11820 8905 l0 -125 130 0 130 0 0 125 0 125 -130 0 -130 0 0 -125z"/>
<path d="M12380 8905 l0 -125 125 0 125 0 0 125 0 125 -125 0 -125 0 0 -125z"/>
<path d="M4060 8625 l0 -135 135 0 135 0 0 135 0 135 -135 0 -135 0 0 -135z"/>
<path d="M630 8620 l0 -130 130 0 130 0 0 130 0 130 -130 0 -130 0 0 -130z"/>
<path d="M1200 8620 l0 -130 130 0 130 0 0 130 0 130 -130 0 -130 0 0 -130z"/>
<path d="M1770 8620 l0 -130 130 0 130 0 0 130 0 130 -130 0 -130 0 0 -130z"/>
<path d="M2050 8620 l0 -130 135 0 135 0 0 130 0 130 -135 0 -135 0 0 -130z"/>
<path d="M2410 8625 l0 -125 130 0 130 0 0 125 0 125 -130 0 -130 0 0 -125z"/>
<path d="M2690 8625 l0 -125 125 0 125 0 0 125 0 125 -125 0 -125 0 0 -125z"/>
<path d="M2970 8625 l0 -125 125 0 125 0 0 125 0 125 -125 0 -125 0 0 -125z"/>
<path d="M4630 8625 l0 -125 125 0 125 0 0 125 0 125 -125 0 -125 0 0 -125z"/>
<path d="M4900 8625 l0 -125 130 0 130 0 0 125 0 125 -130 0 -130 0 0 -125z"/>
<path d="M5180 8625 l0 -125 125 0 125 0 0 125 0 125 -125 0 -125 0 0 -125z"/>
<path d="M5460 8625 l0 -125 125 0 125 0 0 125 0 125 -125 0 -125 0 0 -125z"/>
<path d="M6290 8625 l0 -125 125 0 125 0 0 125 0 125 -125 0 -125 0 0 -125z"/>
<path d="M6560 8625 l0 -125 130 0 130 0 0 125 0 125 -130 0 -130 0 0 -125z"/>
<path d="M6840 8625 l0 -125 125 0 125 0 0 125 0 125 -125 0 -125 0 0 -125z"/>
<path d="M8220 8625 l0 -125 130 0 130 0 0 125 0 125 -130 0 -130 0 0 -125z"/>
<path d="M8500 8625 l0 -125 125 0 125 0 0 125 0 125 -125 0 -125 0 0 -125z"/>
<path d="M9050 8625 l0 -125 130 0 130 0 0 125 0 125 -130 0 -130 0 0 -125z"/>
<path d="M9880 8625 l0 -125 130 0 130 0 0 125 0 125 -130 0 -130 0 0 -125z"/>
<path d="M10717 8743 c-4 -3 -7 -60 -7 -125 l0 -118 130 0 130 0 0 125 0 125
-123 0 c-68 0 -127 -3 -130 -7z"/>
<path d="M11547 8743 c-4 -3 -7 -60 -7 -125 l0 -118 130 0 130 0 0 125 0 125
-123 0 c-68 0 -127 -3 -130 -7z"/>
<path d="M11820 8625 l0 -125 130 0 130 0 0 125 0 125 -130 0 -130 0 0 -125z"/>
<path d="M12380 8625 l0 -125 125 0 125 0 0 125 0 125 -125 0 -125 0 0 -125z"/>
<path d="M13010 8620 l0 -130 130 0 130 0 0 130 0 130 -130 0 -130 0 0 -130z"/>
<path d="M13870 8620 l0 -130 130 0 130 0 0 130 0 130 -130 0 -130 0 0 -130z"/>
<path d="M2410 8350 l0 -131 128 3 127 3 0 125 0 125 -127 3 -128 3 0 -131z"/>
<path d="M3240 8350 l0 -131 128 3 127 3 0 125 0 125 -127 3 -128 3 0 -131z"/>
<path d="M3520 8350 l0 -130 125 0 125 0 0 130 0 130 -125 0 -125 0 0 -130z"/>
<path d="M3800 8350 l0 -130 125 0 125 0 0 130 0 130 -125 0 -125 0 0 -130z"/>
<path d="M4350 8350 l0 -130 125 0 125 0 0 130 0 130 -125 0 -125 0 0 -130z"/>
<path d="M5180 8350 l0 -130 125 0 125 0 0 130 0 130 -125 0 -125 0 0 -130z"/>
<path d="M5730 8350 l0 -130 130 0 131 0 -3 128 -3 127 -127 3 -128 3 0 -131z"/>
<path d="M6290 8350 l0 -130 125 0 125 0 0 130 0 130 -125 0 -125 0 0 -130z"/>
<path d="M6840 8350 l0 -130 125 0 125 0 0 130 0 130 -125 0 -125 0 0 -130z"/>
<path d="M7950 8350 l0 -130 125 0 125 0 0 130 0 130 -125 0 -125 0 0 -130z"/>
<path d="M8500 8350 l0 -130 125 0 125 0 0 130 0 130 -125 0 -125 0 0 -130z"/>
<path d="M8780 8350 l0 -130 125 0 125 0 0 130 0 130 -125 0 -125 0 0 -130z"/>
<path d="M10160 8350 l0 -130 125 0 125 0 0 130 0 130 -125 0 -125 0 0 -130z"/>
<path d="M11545 8458 c-3 -13 -5 -70 -3 -128 l3 -105 128 -3 127 -3 0 131 0
130 -125 0 c-121 0 -125 -1 -130 -22z"/>
<path d="M12100 8350 l0 -130 125 0 125 0 0 130 0 130 -125 0 -125 0 0 -130z"/>
<path d="M630 8340 l0 -130 130 0 130 0 0 130 0 130 -130 0 -130 0 0 -130z"/>
<path d="M1200 8340 l0 -130 130 0 130 0 0 130 0 130 -130 0 -130 0 0 -130z"/>
<path d="M1770 8340 l0 -130 130 0 130 0 0 130 0 130 -130 0 -130 0 0 -130z"/>
<path d="M12720 8340 l0 -130 135 0 135 0 0 130 0 130 -135 0 -135 0 0 -130z"/>
<path d="M13870 8340 l0 -130 130 0 130 0 0 130 0 130 -130 0 -130 0 0 -130z"/>
<path d="M14150 8340 l0 -130 135 0 135 0 0 130 0 130 -135 0 -135 0 0 -130z"/>
<path d="M4060 8075 l0 -135 140 0 141 0 -3 133 -3 132 -137 3 -138 3 0 -136z"/>
<path d="M2410 8075 l0 -125 130 0 130 0 0 125 0 125 -130 0 -130 0 0 -125z"/>
<path d="M2690 8075 l0 -125 125 0 125 0 0 125 0 125 -125 0 -125 0 0 -125z"/>
<path d="M3240 8075 l0 -125 130 0 130 0 0 125 0 125 -130 0 -130 0 0 -125z"/>
<path d="M4350 8075 l0 -125 125 0 125 0 0 125 0 125 -125 0 -125 0 0 -125z"/>
<path d="M5180 8075 l0 -125 125 0 125 0 0 125 0 125 -125 0 -125 0 0 -125z"/>
<path d="M5730 8075 l0 -125 130 0 130 0 0 125 0 125 -130 0 -130 0 0 -125z"/>
<path d="M6010 8075 l0 -125 125 0 125 0 0 125 0 125 -125 0 -125 0 0 -125z"/>
<path d="M6290 8075 l0 -125 125 0 125 0 0 125 0 125 -125 0 -125 0 0 -125z"/>
<path d="M7390 8075 l0 -125 130 0 130 0 0 125 0 125 -130 0 -130 0 0 -125z"/>
<path d="M7950 8075 l0 -125 125 0 125 0 0 125 0 125 -125 0 -125 0 0 -125z"/>
<path d="M8500 8075 l0 -125 125 0 125 0 0 125 0 125 -125 0 -125 0 0 -125z"/>
<path d="M8780 8075 l0 -125 125 0 125 0 0 125 0 125 -125 0 -125 0 0 -125z"/>
<path d="M9880 8075 l0 -125 130 0 130 0 0 125 0 125 -130 0 -130 0 0 -125z"/>
<path d="M10160 8075 l0 -125 125 0 125 0 0 125 0 125 -125 0 -125 0 0 -125z"/>
<path d="M10717 8193 c-4 -3 -7 -60 -7 -125 l0 -118 130 0 130 0 0 125 0 125
-123 0 c-68 0 -127 -3 -130 -7z"/>
<path d="M12100 8075 l0 -125 125 0 125 0 0 125 0 125 -125 0 -125 0 0 -125z"/>
<path d="M1200 8050 l0 -130 130 0 130 0 0 130 0 130 -130 0 -130 0 0 -130z"/>
<path d="M1480 8050 l0 -130 135 0 135 0 0 130 0 130 -135 0 -135 0 0 -130z"/>
<path d="M1770 8050 l0 -130 130 0 130 0 0 130 0 130 -130 0 -130 0 0 -130z"/>
<path d="M13010 8050 l0 -130 130 0 130 0 0 130 0 130 -130 0 -130 0 0 -130z"/>
<path d="M13580 8050 l0 -130 130 0 130 0 0 130 0 130 -130 0 -130 0 0 -130z"/>
<path d="M13870 8050 l0 -130 130 0 130 0 0 130 0 130 -130 0 -130 0 0 -130z"/>
<path d="M14150 8050 l0 -130 135 0 135 0 0 130 0 130 -135 0 -135 0 0 -130z"/>
<path d="M2410 7795 l0 -125 130 0 130 0 0 125 0 125 -130 0 -130 0 0 -125z"/>
<path d="M3800 7795 l0 -125 125 0 125 0 0 125 0 125 -125 0 -125 0 0 -125z"/>
<path d="M5460 7795 l0 -125 125 0 125 0 0 125 0 125 -125 0 -125 0 0 -125z"/>
<path d="M5730 7795 l0 -125 130 0 130 0 0 125 0 125 -130 0 -130 0 0 -125z"/>
<path d="M6290 7795 l0 -125 125 0 125 0 0 125 0 125 -125 0 -125 0 0 -125z"/>
<path d="M7120 7795 l0 -125 125 0 125 0 0 125 0 125 -125 0 -125 0 0 -125z"/>
<path d="M7390 7795 l0 -125 130 0 130 0 0 125 0 125 -130 0 -130 0 0 -125z"/>
<path d="M8500 7795 l0 -125 125 0 125 0 0 125 0 125 -125 0 -125 0 0 -125z"/>
<path d="M9610 7795 l0 -125 125 0 125 0 0 125 0 125 -125 0 -125 0 0 -125z"/>
<path d="M9880 7795 l0 -125 130 0 130 0 0 125 0 125 -130 0 -130 0 0 -125z"/>
<path d="M10160 7795 l0 -125 125 0 125 0 0 125 0 125 -125 0 -125 0 0 -125z"/>
<path d="M10717 7913 c-4 -3 -7 -60 -7 -125 l0 -118 130 0 130 0 0 125 0 125
-123 0 c-68 0 -127 -3 -130 -7z"/>
<path d="M10990 7795 l0 -125 130 0 131 0 -3 123 -3 122 -127 3 -128 3 0 -126z"/>
<path d="M11547 7913 c-4 -3 -7 -60 -7 -125 l0 -118 130 0 130 0 0 125 0 125
-123 0 c-68 0 -127 -3 -130 -7z"/>
<path d="M12380 7795 l0 -125 125 0 125 0 0 125 0 125 -125 0 -125 0 0 -125z"/>
<path d="M340 7765 l0 -135 130 0 130 0 0 135 0 135 -130 0 -130 0 0 -135z"/>
<path d="M910 7765 l0 -135 130 0 130 0 0 135 0 135 -130 0 -130 0 0 -135z"/>
<path d="M1770 7765 l0 -135 130 0 130 0 0 135 0 135 -130 0 -130 0 0 -135z"/>
<path d="M13010 7765 l0 -135 130 0 130 0 0 135 0 135 -130 0 -130 0 0 -135z"/>
<path d="M13300 7765 l0 -135 130 0 130 0 0 135 0 135 -130 0 -130 0 0 -135z"/>
<path d="M14150 7765 l0 -136 133 3 132 3 3 133 3 132 -136 0 -135 0 0 -135z"/>
<path d="M2970 7520 l0 -130 125 0 125 0 0 130 0 130 -125 0 -125 0 0 -130z"/>
<path d="M3240 7520 l0 -131 128 3 127 3 0 125 0 125 -127 3 -128 3 0 -131z"/>
<path d="M4062 7518 l3 -133 135 0 135 0 3 133 3 132 -141 0 -141 0 3 -132z"/>
<path d="M4350 7520 l0 -130 125 0 125 0 0 130 0 130 -125 0 -125 0 0 -130z"/>
<path d="M4630 7520 l0 -130 125 0 125 0 0 130 0 130 -125 0 -125 0 0 -130z"/>
<path d="M4900 7520 l0 -130 130 0 131 0 -3 128 -3 127 -127 3 -128 3 0 -131z"/>
<path d="M5180 7520 l0 -130 125 0 125 0 0 130 0 130 -125 0 -125 0 0 -130z"/>
<path d="M5460 7520 l0 -130 125 0 125 0 0 130 0 130 -125 0 -125 0 0 -130z"/>
<path d="M6567 7644 c-4 -4 -7 -63 -7 -131 l0 -123 130 0 131 0 -3 128 -3 127
-121 3 c-66 1 -123 -1 -127 -4z"/>
<path d="M6840 7520 l0 -130 125 0 125 0 0 130 0 130 -125 0 -125 0 0 -130z"/>
<path d="M7120 7520 l0 -130 125 0 125 0 0 130 0 130 -125 0 -125 0 0 -130z"/>
<path d="M7397 7643 c-4 -3 -7 -62 -7 -130 l0 -123 130 0 130 0 0 130 0 130
-123 0 c-68 0 -127 -3 -130 -7z"/>
<path d="M7950 7520 l0 -130 125 0 125 0 0 130 0 130 -125 0 -125 0 0 -130z"/>
<path d="M8227 7643 c-4 -3 -7 -62 -7 -130 l0 -123 130 0 130 0 0 130 0 130
-123 0 c-68 0 -127 -3 -130 -7z"/>
<path d="M8500 7520 l0 -130 125 0 125 0 0 130 0 130 -125 0 -125 0 0 -130z"/>
<path d="M9610 7520 l0 -130 125 0 125 0 0 130 0 130 -125 0 -125 0 0 -130z"/>
<path d="M9884 7637 c-2 -7 -3 -65 -2 -128 l3 -114 128 -3 127 -3 0 131 0 130
-125 0 c-94 0 -127 -3 -131 -13z"/>
<path d="M11545 7628 c-3 -13 -5 -70 -3 -128 l3 -105 128 -3 127 -3 0 131 0
130 -125 0 c-121 0 -125 -1 -130 -22z"/>
<path d="M12380 7520 l0 -130 125 0 125 0 0 130 0 130 -125 0 -125 0 0 -130z"/>
<path d="M910 7480 l0 -130 130 0 130 0 0 130 0 130 -130 0 -130 0 0 -130z"/>
<path d="M1200 7480 l0 -130 130 0 130 0 0 130 0 130 -130 0 -130 0 0 -130z"/>
<path d="M1770 7480 l0 -130 130 0 130 0 0 130 0 130 -130 0 -130 0 0 -130z"/>
<path d="M13300 7480 l0 -130 130 0 130 0 0 130 0 130 -130 0 -130 0 0 -130z"/>
<path d="M13580 7480 l0 -130 130 0 130 0 0 130 0 130 -130 0 -130 0 0 -130z"/>
<path d="M13870 7480 l0 -130 130 0 130 0 0 130 0 130 -130 0 -130 0 0 -130z"/>
<path d="M14440 7480 l0 -130 130 0 130 0 0 130 0 130 -130 0 -130 0 0 -130z"/>
<path d="M2690 7245 l0 -125 125 0 125 0 0 125 0 125 -125 0 -125 0 0 -125z"/>
<path d="M2970 7245 l0 -125 125 0 125 0 0 125 0 125 -125 0 -125 0 0 -125z"/>
<path d="M3240 7245 l0 -125 130 0 130 0 0 125 0 125 -130 0 -130 0 0 -125z"/>
<path d="M3800 7245 l0 -125 125 0 125 0 0 125 0 125 -125 0 -125 0 0 -125z"/>
<path d="M4350 7245 l0 -125 125 0 125 0 0 125 0 125 -125 0 -125 0 0 -125z"/>
<path d="M4900 7245 l0 -125 130 0 130 0 0 125 0 125 -130 0 -130 0 0 -125z"/>
<path d="M5460 7245 l0 -125 125 0 125 0 0 125 0 125 -125 0 -125 0 0 -125z"/>
<path d="M5730 7245 l0 -125 130 0 130 0 0 125 0 125 -130 0 -130 0 0 -125z"/>
<path d="M6290 7245 l0 -125 125 0 125 0 0 125 0 125 -125 0 -125 0 0 -125z"/>
<path d="M6840 7245 l0 -125 125 0 125 0 0 125 0 125 -125 0 -125 0 0 -125z"/>
<path d="M7120 7245 l0 -125 125 0 125 0 0 125 0 125 -125 0 -125 0 0 -125z"/>
<path d="M7670 7245 l0 -125 125 0 125 0 0 125 0 125 -125 0 -125 0 0 -125z"/>
<path d="M7950 7245 l0 -125 125 0 125 0 0 125 0 125 -125 0 -125 0 0 -125z"/>
<path d="M8220 7245 l0 -125 130 0 130 0 0 125 0 125 -130 0 -130 0 0 -125z"/>
<path d="M8500 7245 l0 -125 125 0 125 0 0 125 0 125 -125 0 -125 0 0 -125z"/>
<path d="M9050 7245 l0 -125 130 0 130 0 0 125 0 125 -130 0 -130 0 0 -125z"/>
<path d="M9610 7245 l0 -125 125 0 125 0 0 125 0 125 -125 0 -125 0 0 -125z"/>
<path d="M9880 7245 l0 -125 130 0 130 0 0 125 0 125 -130 0 -130 0 0 -125z"/>
<path d="M10717 7363 c-4 -3 -7 -60 -7 -125 l0 -118 130 0 130 0 0 125 0 125
-123 0 c-68 0 -127 -3 -130 -7z"/>
<path d="M11547 7363 c-4 -3 -7 -60 -7 -125 l0 -118 130 0 130 0 0 125 0 125
-123 0 c-68 0 -127 -3 -130 -7z"/>
<path d="M340 7195 l0 -135 130 0 130 0 0 135 0 135 -130 0 -130 0 0 -135z"/>
<path d="M1480 7195 l0 -135 135 0 135 0 0 135 0 135 -135 0 -135 0 0 -135z"/>
<path d="M12720 7195 l0 -135 135 0 135 0 0 135 0 135 -135 0 -135 0 0 -135z"/>
<path d="M13300 7195 l0 -135 130 0 130 0 0 135 0 135 -130 0 -130 0 0 -135z"/>
<path d="M13870 7195 l0 -135 130 0 130 0 0 135 0 135 -130 0 -130 0 0 -135z"/>
<path d="M14150 7195 l0 -135 135 0 136 0 -3 133 -3 132 -132 3 -133 3 0 -136z"/>
<path d="M14440 7195 l0 -135 130 0 130 0 0 135 0 135 -130 0 -130 0 0 -135z"/>
<path d="M4060 6965 l0 -135 140 0 140 0 0 135 0 135 -140 0 -140 0 0 -135z"/>
<path d="M2410 6965 l0 -125 130 0 130 0 0 125 0 125 -130 0 -130 0 0 -125z"/>
<path d="M2970 6965 l0 -125 125 0 125 0 0 125 0 125 -125 0 -125 0 0 -125z"/>
<path d="M3520 6965 l0 -125 125 0 125 0 0 125 0 125 -125 0 -125 0 0 -125z"/>
<path d="M3800 6965 l0 -125 125 0 125 0 0 125 0 125 -125 0 -125 0 0 -125z"/>
<path d="M4350 6965 l0 -125 125 0 125 0 0 125 0 125 -125 0 -125 0 0 -125z"/>
<path d="M4630 6965 l0 -125 125 0 125 0 0 125 0 125 -125 0 -125 0 0 -125z"/>
<path d="M5180 6965 l0 -125 125 0 125 0 0 125 0 125 -125 0 -125 0 0 -125z"/>
<path d="M5460 6965 l0 -125 125 0 125 0 0 125 0 125 -125 0 -125 0 0 -125z"/>
<path d="M6290 6965 l0 -125 125 0 125 0 0 125 0 125 -125 0 -125 0 0 -125z"/>
<path d="M7120 6965 l0 -125 125 0 125 0 0 125 0 125 -125 0 -125 0 0 -125z"/>
<path d="M7950 6965 l0 -125 125 0 125 0 0 125 0 125 -125 0 -125 0 0 -125z"/>
<path d="M8220 6965 l0 -125 130 0 130 0 0 125 0 125 -130 0 -130 0 0 -125z"/>
<path d="M8500 6965 l0 -125 125 0 125 0 0 125 0 125 -125 0 -125 0 0 -125z"/>
<path d="M9880 6965 l0 -125 130 0 130 0 0 125 0 125 -130 0 -130 0 0 -125z"/>
<path d="M10160 6965 l0 -125 125 0 125 0 0 125 0 125 -125 0 -125 0 0 -125z"/>
<path d="M10717 7083 c-4 -3 -7 -60 -7 -125 l0 -118 130 0 130 0 0 125 0 125
-123 0 c-68 0 -127 -3 -130 -7z"/>
<path d="M11547 7083 c-4 -3 -7 -60 -7 -125 l0 -118 130 0 130 0 0 125 0 125
-123 0 c-68 0 -127 -3 -130 -7z"/>
<path d="M12100 6965 l0 -125 125 0 125 0 0 125 0 125 -125 0 -125 0 0 -125z"/>
<path d="M340 6910 l0 -130 130 0 130 0 0 130 0 130 -130 0 -130 0 0 -130z"/>
<path d="M910 6910 l0 -130 130 0 130 0 0 130 0 130 -130 0 -130 0 0 -130z"/>
<path d="M1480 6910 l0 -130 135 0 135 0 0 130 0 130 -135 0 -135 0 0 -130z"/>
<path d="M1770 6910 l0 -130 130 0 130 0 0 130 0 130 -130 0 -130 0 0 -130z"/>
<path d="M12720 6910 l0 -130 135 0 135 0 0 130 0 130 -135 0 -135 0 0 -130z"/>
<path d="M13010 6910 l0 -130 130 0 130 0 0 130 0 130 -130 0 -130 0 0 -130z"/>
<path d="M13580 6910 l0 -130 130 0 130 0 0 130 0 130 -130 0 -130 0 0 -130z"/>
<path d="M2410 6690 l0 -131 128 3 127 3 0 125 0 125 -127 3 -128 3 0 -131z"/>
<path d="M2690 6690 l0 -130 125 0 125 0 0 130 0 130 -125 0 -125 0 0 -130z"/>
<path d="M2970 6690 l0 -130 125 0 125 0 0 130 0 130 -125 0 -125 0 0 -130z"/>
<path d="M3240 6690 l0 -130 130 0 131 0 -3 128 -3 127 -127 3 -128 3 0 -131z"/>
<path d="M5180 6690 l0 -130 125 0 125 0 0 130 0 130 -125 0 -125 0 0 -130z"/>
<path d="M5460 6690 l0 -130 125 0 125 0 0 130 0 130 -125 0 -125 0 0 -130z"/>
<path d="M6290 6690 l0 -130 125 0 125 0 0 130 0 130 -125 0 -125 0 0 -130z"/>
<path d="M6567 6814 c-4 -4 -7 -63 -7 -131 l0 -123 130 0 131 0 -3 128 -3 127
-121 3 c-66 1 -123 -1 -127 -4z"/>
<path d="M7120 6690 l0 -130 125 0 125 0 0 130 0 130 -125 0 -125 0 0 -130z"/>
<path d="M7670 6690 l0 -130 125 0 125 0 0 130 0 130 -125 0 -125 0 0 -130z"/>
<path d="M8227 6813 c-4 -3 -7 -62 -7 -130 l0 -123 130 0 130 0 0 130 0 130
-123 0 c-68 0 -127 -3 -130 -7z"/>
<path d="M8500 6690 l0 -130 125 0 125 0 0 130 0 130 -125 0 -125 0 0 -130z"/>
<path d="M8780 6690 l0 -130 125 0 125 0 0 130 0 130 -125 0 -125 0 0 -130z"/>
<path d="M9057 6813 c-4 -3 -7 -62 -7 -130 l0 -123 130 0 130 0 0 130 0 130
-123 0 c-68 0 -127 -3 -130 -7z"/>
<path d="M9884 6807 c-2 -7 -3 -65 -2 -128 l3 -114 128 -3 127 -3 0 131 0 130
-125 0 c-94 0 -127 -3 -131 -13z"/>
<path d="M10714 6807 c-2 -7 -3 -65 -2 -128 l3 -114 128 -3 127 -3 0 131 0
130 -125 0 c-94 0 -127 -3 -131 -13z"/>
<path d="M10990 6690 l0 -131 128 3 127 3 0 125 0 125 -127 3 -128 3 0 -131z"/>
<path d="M12380 6690 l0 -130 125 0 125 0 0 130 0 130 -125 0 -125 0 0 -130z"/>
<path d="M630 6620 l0 -130 130 0 130 0 0 130 0 130 -130 0 -130 0 0 -130z"/>
<path d="M910 6620 l0 -130 130 0 130 0 0 130 0 130 -130 0 -130 0 0 -130z"/>
<path d="M1480 6620 l0 -130 135 0 135 0 0 130 0 130 -135 0 -135 0 0 -130z"/>
<path d="M1770 6620 l0 -130 130 0 130 0 0 130 0 130 -130 0 -130 0 0 -130z"/>
<path d="M12720 6620 l0 -130 135 0 135 0 0 130 0 130 -135 0 -135 0 0 -130z"/>
<path d="M13010 6620 l0 -130 130 0 130 0 0 130 0 130 -130 0 -130 0 0 -130z"/>
<path d="M13300 6620 l0 -130 130 0 130 0 0 130 0 130 -130 0 -130 0 0 -130z"/>
<path d="M13580 6620 l0 -130 130 0 130 0 0 130 0 130 -130 0 -130 0 0 -130z"/>
<path d="M4060 6415 l0 -135 135 0 135 0 0 135 0 135 -135 0 -135 0 0 -135z"/>
<path d="M2410 6415 l0 -125 130 0 130 0 0 125 0 125 -130 0 -130 0 0 -125z"/>
<path d="M2690 6415 l0 -125 125 0 125 0 0 125 0 125 -125 0 -125 0 0 -125z"/>
<path d="M3240 6415 l0 -125 130 0 130 0 0 125 0 125 -130 0 -130 0 0 -125z"/>
<path d="M4900 6415 l0 -125 130 0 130 0 0 125 0 125 -130 0 -130 0 0 -125z"/>
<path d="M5730 6415 l0 -125 130 0 130 0 0 125 0 125 -130 0 -130 0 0 -125z"/>
<path d="M6010 6415 l0 -125 125 0 125 0 0 125 0 125 -125 0 -125 0 0 -125z"/>
<path d="M6560 6415 l0 -125 130 0 130 0 0 125 0 125 -130 0 -130 0 0 -125z"/>
<path d="M7120 6415 l0 -125 125 0 125 0 0 125 0 125 -125 0 -125 0 0 -125z"/>
<path d="M7390 6415 l0 -125 130 0 130 0 0 125 0 125 -130 0 -130 0 0 -125z"/>
<path d="M7950 6415 l0 -125 125 0 125 0 0 125 0 125 -125 0 -125 0 0 -125z"/>
<path d="M8220 6415 l0 -125 130 0 130 0 0 125 0 125 -130 0 -130 0 0 -125z"/>
<path d="M9330 6415 l0 -125 125 0 125 0 0 125 0 125 -125 0 -125 0 0 -125z"/>
<path d="M9610 6415 l0 -125 125 0 125 0 0 125 0 125 -125 0 -125 0 0 -125z"/>
<path d="M9880 6415 l0 -125 130 0 130 0 0 125 0 125 -130 0 -130 0 0 -125z"/>
<path d="M10160 6415 l0 -125 125 0 125 0 0 125 0 125 -125 0 -125 0 0 -125z"/>
<path d="M10440 6415 l0 -125 125 0 125 0 0 125 0 125 -125 0 -125 0 0 -125z"/>
<path d="M10717 6533 c-4 -3 -7 -60 -7 -125 l0 -118 130 0 130 0 0 125 0 125
-123 0 c-68 0 -127 -3 -130 -7z"/>
<path d="M10990 6415 l0 -125 130 0 131 0 -3 123 -3 122 -127 3 -128 3 0 -126z"/>
<path d="M11270 6415 l0 -125 125 0 125 0 0 125 0 125 -125 0 -125 0 0 -125z"/>
<path d="M11547 6533 c-4 -3 -7 -60 -7 -125 l0 -118 130 0 130 0 0 125 0 125
-123 0 c-68 0 -127 -3 -130 -7z"/>
<path d="M12380 6415 l0 -125 125 0 125 0 0 125 0 125 -125 0 -125 0 0 -125z"/>
<path d="M1200 6340 l0 -130 130 0 130 0 0 130 0 130 -130 0 -130 0 0 -130z"/>
<path d="M1480 6340 l0 -130 135 0 135 0 0 130 0 130 -135 0 -135 0 0 -130z"/>
<path d="M1770 6340 l0 -130 130 0 130 0 0 130 0 130 -130 0 -130 0 0 -130z"/>
<path d="M2050 6340 l0 -130 135 0 135 0 0 130 0 130 -135 0 -135 0 0 -130z"/>
<path d="M13010 6340 l0 -130 130 0 130 0 0 130 0 130 -130 0 -130 0 0 -130z"/>
<path d="M13300 6340 l0 -130 130 0 130 0 0 130 0 130 -130 0 -130 0 0 -130z"/>
<path d="M13870 6340 l0 -130 130 0 130 0 0 130 0 130 -130 0 -130 0 0 -130z"/>
<path d="M2410 6135 l0 -125 130 0 130 0 0 125 0 125 -130 0 -130 0 0 -125z"/>
<path d="M3240 6135 l0 -125 130 0 130 0 0 125 0 125 -130 0 -130 0 0 -125z"/>
<path d="M4630 6135 l0 -125 125 0 125 0 0 125 0 125 -125 0 -125 0 0 -125z"/>
<path d="M4900 6135 l0 -125 130 0 130 0 0 125 0 125 -130 0 -130 0 0 -125z"/>
<path d="M6010 6135 l0 -125 125 0 125 0 0 125 0 125 -125 0 -125 0 0 -125z"/>
<path d="M6840 6135 l0 -125 125 0 125 0 0 125 0 125 -125 0 -125 0 0 -125z"/>
<path d="M8220 6135 l0 -125 130 0 130 0 0 125 0 125 -130 0 -130 0 0 -125z"/>
<path d="M9610 6135 l0 -125 125 0 125 0 0 125 0 125 -125 0 -125 0 0 -125z"/>
<path d="M9880 6135 l0 -125 130 0 130 0 0 125 0 125 -130 0 -130 0 0 -125z"/>
<path d="M10717 6253 c-4 -3 -7 -60 -7 -125 l0 -118 130 0 130 0 0 125 0 125
-123 0 c-68 0 -127 -3 -130 -7z"/>
<path d="M10990 6135 l0 -125 130 0 131 0 -3 123 -3 122 -127 3 -128 3 0 -126z"/>
<path d="M11547 6253 c-4 -3 -7 -60 -7 -125 l0 -118 130 0 130 0 0 125 0 125
-123 0 c-68 0 -127 -3 -130 -7z"/>
<path d="M12100 6135 l0 -125 125 0 125 0 0 125 0 125 -125 0 -125 0 0 -125z"/>
<path d="M2050 6050 l0 -130 135 0 135 0 0 130 0 130 -135 0 -135 0 0 -130z"/>
<path d="M12720 6050 l0 -130 135 0 135 0 0 130 0 130 -135 0 -135 0 0 -130z"/>
<path d="M13010 6050 l0 -130 130 0 130 0 0 130 0 130 -130 0 -130 0 0 -130z"/>
<path d="M14150 6050 l0 -130 135 0 135 0 0 130 0 130 -135 0 -135 0 0 -130z"/>
<path d="M2410 5860 l0 -131 128 3 127 3 0 125 0 125 -127 3 -128 3 0 -131z"/>
<path d="M2970 5860 l0 -130 125 0 125 0 0 130 0 130 -125 0 -125 0 0 -130z"/>
<path d="M3240 5860 l0 -130 130 0 131 0 -3 128 -3 127 -127 3 -128 3 0 -131z"/>
<path d="M4060 5855 l0 -136 138 3 137 3 3 133 3 132 -141 0 -140 0 0 -135z"/>
<path d="M4350 5860 l0 -130 125 0 125 0 0 130 0 130 -125 0 -125 0 0 -130z"/>
<path d="M4630 5860 l0 -130 125 0 125 0 0 130 0 130 -125 0 -125 0 0 -130z"/>
<path d="M4907 5984 c-4 -4 -7 -63 -7 -131 l0 -123 130 0 131 0 -3 128 -3 127
-121 3 c-66 1 -123 -1 -127 -4z"/>
<path d="M5180 5860 l0 -130 125 0 125 0 0 130 0 130 -125 0 -125 0 0 -130z"/>
<path d="M5460 5860 l0 -130 125 0 125 0 0 130 0 130 -125 0 -125 0 0 -130z"/>
<path d="M5737 5984 c-4 -4 -7 -63 -7 -131 l0 -123 130 0 131 0 -3 128 -3 127
-121 3 c-66 1 -123 -1 -127 -4z"/>
<path d="M6567 5984 c-4 -4 -7 -63 -7 -131 l0 -123 130 0 131 0 -3 128 -3 127
-121 3 c-66 1 -123 -1 -127 -4z"/>
<path d="M7397 5984 c-4 -4 -7 -63 -7 -131 l0 -123 130 0 131 0 -3 128 -3 127
-121 3 c-66 1 -123 -1 -127 -4z"/>
<path d="M7670 5860 l0 -130 125 0 125 0 0 130 0 130 -125 0 -125 0 0 -130z"/>
<path d="M8500 5860 l0 -130 125 0 125 0 0 130 0 130 -125 0 -125 0 0 -130z"/>
<path d="M8780 5860 l0 -130 125 0 125 0 0 130 0 130 -125 0 -125 0 0 -130z"/>
<path d="M9330 5860 l0 -130 125 0 125 0 0 130 0 130 -125 0 -125 0 0 -130z"/>
<path d="M9610 5860 l0 -130 125 0 125 0 0 130 0 130 -125 0 -125 0 0 -130z"/>
<path d="M10160 5860 l0 -130 125 0 125 0 0 130 0 130 -125 0 -125 0 0 -130z"/>
<path d="M10714 5977 c-2 -7 -3 -65 -2 -128 l3 -114 128 -3 127 -3 0 131 0
130 -125 0 c-94 0 -127 -3 -131 -13z"/>
<path d="M10990 5860 l0 -131 128 3 127 3 3 105 c4 161 14 150 -133 150 l-125
0 0 -130z"/>
<path d="M11545 5968 c-3 -13 -5 -70 -3 -128 l3 -105 128 -3 127 -3 0 131 0
130 -125 0 c-121 0 -125 -1 -130 -22z"/>
<path d="M12100 5860 l0 -130 125 0 125 0 0 130 0 130 -125 0 -125 0 0 -130z"/>
<path d="M630 5765 l0 -135 130 0 130 0 0 135 0 135 -130 0 -130 0 0 -135z"/>
<path d="M1770 5765 l0 -135 130 0 130 0 0 135 0 135 -130 0 -130 0 0 -135z"/>
<path d="M12722 5768 l3 -133 133 -3 132 -3 0 136 0 135 -135 0 -136 0 3 -132z"/>
<path d="M13300 5765 l0 -135 130 0 130 0 0 135 0 135 -130 0 -130 0 0 -135z"/>
<path d="M3240 5585 l0 -125 130 0 130 0 0 125 0 125 -130 0 -130 0 0 -125z"/>
<path d="M3800 5585 l0 -125 125 0 125 0 0 125 0 125 -125 0 -125 0 0 -125z"/>
<path d="M4350 5585 l0 -125 125 0 125 0 0 125 0 125 -125 0 -125 0 0 -125z"/>
<path d="M5180 5585 l0 -125 125 0 125 0 0 125 0 125 -125 0 -125 0 0 -125z"/>
<path d="M5460 5585 l0 -125 125 0 125 0 0 125 0 125 -125 0 -125 0 0 -125z"/>
<path d="M6560 5585 l0 -125 130 0 130 0 0 125 0 125 -130 0 -130 0 0 -125z"/>
<path d="M7670 5585 l0 -125 125 0 125 0 0 125 0 125 -125 0 -125 0 0 -125z"/>
<path d="M7950 5585 l0 -125 125 0 125 0 0 125 0 125 -125 0 -125 0 0 -125z"/>
<path d="M8500 5585 l0 -125 125 0 125 0 0 125 0 125 -125 0 -125 0 0 -125z"/>
<path d="M9610 5585 l0 -125 125 0 125 0 0 125 0 125 -125 0 -125 0 0 -125z"/>
<path d="M9880 5585 l0 -125 130 0 130 0 0 125 0 125 -130 0 -130 0 0 -125z"/>
<path d="M10717 5703 c-4 -3 -7 -60 -7 -125 l0 -118 130 0 130 0 0 125 0 125
-123 0 c-68 0 -127 -3 -130 -7z"/>
<path d="M10990 5585 l0 -125 130 0 131 0 -3 123 -3 122 -127 3 -128 3 0 -126z"/>
<path d="M12380 5585 l0 -125 125 0 125 0 0 125 0 125 -125 0 -125 0 0 -125z"/>
<path d="M1480 5480 l0 -130 135 0 135 0 0 130 0 130 -135 0 -135 0 0 -130z"/>
<path d="M1770 5480 l0 -130 130 0 130 0 0 130 0 130 -130 0 -130 0 0 -130z"/>
<path d="M2050 5480 l0 -130 135 0 135 0 0 130 0 130 -135 0 -135 0 0 -130z"/>
<path d="M12720 5480 l0 -130 135 0 135 0 0 130 0 130 -135 0 -135 0 0 -130z"/>
<path d="M13010 5480 l0 -130 130 0 130 0 0 130 0 130 -130 0 -130 0 0 -130z"/>
<path d="M13300 5480 l0 -130 130 0 130 0 0 130 0 130 -130 0 -130 0 0 -130z"/>
<path d="M13870 5480 l0 -130 130 0 130 0 0 130 0 130 -130 0 -130 0 0 -130z"/>
<path d="M14150 5480 l0 -130 135 0 135 0 0 130 0 130 -135 0 -135 0 0 -130z"/>
<path d="M4060 5305 l0 -135 140 0 140 0 0 135 0 135 -140 0 -140 0 0 -135z"/>
<path d="M2410 5305 l0 -125 130 0 130 0 0 125 0 125 -130 0 -130 0 0 -125z"/>
<path d="M2690 5305 l0 -125 125 0 125 0 0 125 0 125 -125 0 -125 0 0 -125z"/>
<path d="M3520 5305 l0 -125 125 0 125 0 0 125 0 125 -125 0 -125 0 0 -125z"/>
<path d="M4350 5305 l0 -125 125 0 125 0 0 125 0 125 -125 0 -125 0 0 -125z"/>
<path d="M5180 5305 l0 -125 125 0 125 0 0 125 0 125 -125 0 -125 0 0 -125z"/>
<path d="M6010 5305 l0 -125 125 0 125 0 0 125 0 125 -125 0 -125 0 0 -125z"/>
<path d="M6560 5305 l0 -125 130 0 130 0 0 125 0 125 -130 0 -130 0 0 -125z"/>
<path d="M7120 5305 l0 -125 125 0 125 0 0 125 0 125 -125 0 -125 0 0 -125z"/>
<path d="M7670 5305 l0 -125 125 0 125 0 0 125 0 125 -125 0 -125 0 0 -125z"/>
<path d="M7950 5305 l0 -125 125 0 125 0 0 125 0 125 -125 0 -125 0 0 -125z"/>
<path d="M8780 5305 l0 -125 125 0 125 0 0 125 0 125 -125 0 -125 0 0 -125z"/>
<path d="M9330 5305 l0 -125 125 0 125 0 0 125 0 125 -125 0 -125 0 0 -125z"/>
<path d="M9880 5305 l0 -125 130 0 130 0 0 125 0 125 -130 0 -130 0 0 -125z"/>
<path d="M10440 5305 l0 -125 125 0 125 0 0 125 0 125 -125 0 -125 0 0 -125z"/>
<path d="M10710 5305 l0 -125 130 0 130 0 0 125 0 125 -130 0 -130 0 0 -125z"/>
<path d="M10990 5305 l0 -125 130 0 131 0 -3 123 -3 122 -127 3 -128 3 0 -126z"/>
<path d="M12380 5305 l0 -125 125 0 125 0 0 125 0 125 -125 0 -125 0 0 -125z"/>
<path d="M910 5195 l0 -135 130 0 130 0 0 135 0 135 -130 0 -130 0 0 -135z"/>
<path d="M1200 5195 l0 -135 130 0 130 0 0 135 0 135 -130 0 -130 0 0 -135z"/>
<path d="M1480 5195 l0 -135 135 0 135 0 0 135 0 135 -135 0 -135 0 0 -135z"/>
<path d="M12720 5195 l0 -135 135 0 135 0 0 135 0 135 -135 0 -135 0 0 -135z"/>
<path d="M13010 5195 l0 -135 130 0 130 0 0 135 0 135 -130 0 -130 0 0 -135z"/>
<path d="M13300 5195 l0 -135 130 0 130 0 0 135 0 135 -130 0 -130 0 0 -135z"/>
<path d="M13580 5195 l0 -135 130 0 130 0 0 135 0 135 -130 0 -130 0 0 -135z"/>
<path d="M13870 5195 l0 -135 130 0 130 0 0 135 0 135 -130 0 -130 0 0 -135z"/>
<path d="M3247 5154 c-4 -4 -7 -63 -7 -131 l0 -123 130 0 131 0 -3 128 -3 127
-121 3 c-66 1 -123 -1 -127 -4z"/>
<path d="M3800 5030 l0 -130 125 0 125 0 0 130 0 130 -125 0 -125 0 0 -130z"/>
<path d="M4350 5030 l0 -130 125 0 125 0 0 130 0 130 -125 0 -125 0 0 -130z"/>
<path d="M4907 5154 c-4 -4 -7 -63 -7 -131 l0 -123 130 0 131 0 -3 128 -3 127
-121 3 c-66 1 -123 -1 -127 -4z"/>
<path d="M5180 5030 l0 -130 125 0 125 0 0 130 0 130 -125 0 -125 0 0 -130z"/>
<path d="M5460 5030 l0 -130 125 0 125 0 0 130 0 130 -125 0 -125 0 0 -130z"/>
<path d="M5737 5154 c-4 -4 -7 -63 -7 -131 l0 -123 130 0 131 0 -3 128 -3 127
-121 3 c-66 1 -123 -1 -127 -4z"/>
<path d="M6010 5030 l0 -130 125 0 125 0 0 130 0 130 -125 0 -125 0 0 -130z"/>
<path d="M6567 5154 c-4 -4 -7 -63 -7 -131 l0 -123 130 0 131 0 -3 128 -3 127
-121 3 c-66 1 -123 -1 -127 -4z"/>
<path d="M7670 5030 l0 -130 125 0 125 0 0 130 0 130 -125 0 -125 0 0 -130z"/>
<path d="M7950 5030 l0 -130 125 0 125 0 0 130 0 130 -125 0 -125 0 0 -130z"/>
<path d="M8500 5030 l0 -130 125 0 125 0 0 130 0 130 -125 0 -125 0 0 -130z"/>
<path d="M9887 5153 c-4 -3 -7 -62 -7 -130 l0 -123 130 0 130 0 0 130 0 130
-123 0 c-68 0 -127 -3 -130 -7z"/>
<path d="M10167 5153 c-4 -3 -7 -62 -7 -130 l0 -123 125 0 125 0 0 130 0 130
-118 0 c-65 0 -122 -3 -125 -7z"/>
<path d="M10440 5030 l0 -130 125 0 125 0 0 130 0 130 -125 0 -125 0 0 -130z"/>
<path d="M10714 5147 c-2 -7 -3 -65 -2 -128 l3 -114 128 -3 127 -3 0 131 0
130 -125 0 c-94 0 -127 -3 -131 -13z"/>
<path d="M10990 5030 l0 -131 128 3 127 3 3 105 c4 161 14 150 -133 150 l-125
0 0 -130z"/>
<path d="M11270 5030 l0 -130 125 0 125 0 0 130 0 130 -125 0 -125 0 0 -130z"/>
<path d="M12100 5030 l0 -130 125 0 125 0 0 130 0 130 -125 0 -125 0 0 -130z"/>
<path d="M12380 5030 l0 -130 125 0 125 0 0 130 0 130 -125 0 -125 0 0 -130z"/>
<path d="M1480 4910 l0 -130 135 0 135 0 0 130 0 130 -135 0 -135 0 0 -130z"/>
<path d="M1770 4910 l0 -130 130 0 130 0 0 130 0 130 -130 0 -130 0 0 -130z"/>
<path d="M13300 4910 l0 -130 130 0 130 0 0 130 0 130 -130 0 -130 0 0 -130z"/>
<path d="M13870 4910 l0 -130 130 0 130 0 0 130 0 130 -130 0 -130 0 0 -130z"/>
<path d="M4060 4755 l0 -135 140 0 141 0 -3 133 -3 132 -137 3 -138 3 0 -136z"/>
<path d="M10150 4200 l0 -690 690 0 690 0 0 690 0 690 -690 0 -690 0 0 -690z
m1110 0 l0 -420 -420 0 -420 0 0 413 c0 228 3 417 7 420 3 4 192 7 420 7 l413
0 0 -420z"/>
<path d="M10710 4195 l0 -135 135 0 135 0 0 135 0 135 -135 0 -135 0 0 -135z"/>
<path d="M2410 4755 l0 -125 130 0 130 0 0 125 0 125 -130 0 -130 0 0 -125z"/>
<path d="M2690 4755 l0 -125 125 0 125 0 0 125 0 125 -125 0 -125 0 0 -125z"/>
<path d="M2970 4755 l0 -125 125 0 125 0 0 125 0 125 -125 0 -125 0 0 -125z"/>
<path d="M3240 4755 l0 -125 130 0 130 0 0 125 0 125 -130 0 -130 0 0 -125z"/>
<path d="M3520 4755 l0 -125 125 0 125 0 0 125 0 125 -125 0 -125 0 0 -125z"/>
<path d="M4350 4755 l0 -125 125 0 125 0 0 125 0 125 -125 0 -125 0 0 -125z"/>
<path d="M4630 4755 l0 -125 125 0 125 0 0 125 0 125 -125 0 -125 0 0 -125z"/>
<path d="M4900 4755 l0 -125 130 0 130 0 0 125 0 125 -130 0 -130 0 0 -125z"/>
<path d="M5460 4755 l0 -125 125 0 125 0 0 125 0 125 -125 0 -125 0 0 -125z"/>
<path d="M5730 4755 l0 -125 130 0 130 0 0 125 0 125 -130 0 -130 0 0 -125z"/>
<path d="M6010 4755 l0 -125 125 0 125 0 0 125 0 125 -125 0 -125 0 0 -125z"/>
<path d="M6290 4755 l0 -125 125 0 125 0 0 125 0 125 -125 0 -125 0 0 -125z"/>
<path d="M6560 4755 l0 -125 130 0 130 0 0 125 0 125 -130 0 -130 0 0 -125z"/>
<path d="M7390 4755 l0 -125 130 0 130 0 0 125 0 125 -130 0 -130 0 0 -125z"/>
<path d="M7670 4755 l0 -125 125 0 125 0 0 125 0 125 -125 0 -125 0 0 -125z"/>
<path d="M7950 4755 l0 -125 125 0 125 0 0 125 0 125 -125 0 -125 0 0 -125z"/>
<path d="M8780 4755 l0 -125 125 0 125 0 0 125 0 125 -125 0 -125 0 0 -125z"/>
<path d="M9050 4755 l0 -125 130 0 130 0 0 125 0 125 -130 0 -130 0 0 -125z"/>
<path d="M9887 4873 c-4 -3 -7 -60 -7 -125 l0 -118 130 0 130 0 0 125 0 125
-123 0 c-68 0 -127 -3 -130 -7z"/>
<path d="M11547 4873 c-4 -3 -7 -60 -7 -125 l0 -118 130 0 130 0 0 125 0 125
-123 0 c-68 0 -127 -3 -130 -7z"/>
<path d="M12380 4755 l0 -125 125 0 125 0 0 125 0 125 -125 0 -125 0 0 -125z"/>
<path d="M1480 4625 l0 -135 135 0 136 0 -3 133 -3 132 -132 3 -133 3 0 -136z"/>
<path d="M1770 4625 l0 -135 130 0 130 0 0 135 0 135 -130 0 -130 0 0 -135z"/>
<path d="M2057 4753 c-4 -3 -7 -64 -7 -135 l0 -128 135 0 135 0 0 135 0 135
-128 0 c-71 0 -132 -3 -135 -7z"/>
<path d="M13010 4625 l0 -135 130 0 130 0 0 135 0 135 -130 0 -130 0 0 -135z"/>
<path d="M13580 4625 l0 -135 130 0 130 0 0 135 0 135 -130 0 -130 0 0 -135z"/>
<path d="M4630 4475 l0 -125 125 0 125 0 0 125 0 125 -125 0 -125 0 0 -125z"/>
<path d="M5180 4475 l0 -125 125 0 125 0 0 125 0 125 -125 0 -125 0 0 -125z"/>
<path d="M5460 4475 l0 -125 125 0 125 0 0 125 0 125 -125 0 -125 0 0 -125z"/>
<path d="M5730 4475 l0 -125 130 0 130 0 0 125 0 125 -130 0 -130 0 0 -125z"/>
<path d="M6290 4475 l0 -125 125 0 125 0 0 125 0 125 -125 0 -125 0 0 -125z"/>
<path d="M6840 4475 l0 -125 125 0 125 0 0 125 0 125 -125 0 -125 0 0 -125z"/>
<path d="M7670 4475 l0 -125 125 0 125 0 0 125 0 125 -125 0 -125 0 0 -125z"/>
<path d="M7950 4475 l0 -125 125 0 125 0 0 125 0 125 -125 0 -125 0 0 -125z"/>
<path d="M8500 4475 l0 -125 125 0 125 0 0 125 0 125 -125 0 -125 0 0 -125z"/>
<path d="M8780 4475 l0 -125 125 0 125 0 0 125 0 125 -125 0 -125 0 0 -125z"/>
<path d="M9050 4475 l0 -125 130 0 130 0 0 125 0 125 -130 0 -130 0 0 -125z"/>
<path d="M9610 4475 l0 -125 125 0 125 0 0 125 0 125 -125 0 -125 0 0 -125z"/>
<path d="M11540 4475 l0 -125 130 0 130 0 0 125 0 125 -130 0 -130 0 0 -125z"/>
<path d="M12380 4475 l0 -125 125 0 125 0 0 125 0 125 -125 0 -125 0 0 -125z"/>
<path d="M1200 4340 l0 -130 130 0 130 0 0 130 0 130 -130 0 -130 0 0 -130z"/>
<path d="M1480 4340 l0 -130 135 0 135 0 0 130 0 130 -135 0 -135 0 0 -130z"/>
<path d="M2050 4340 l0 -130 135 0 135 0 0 130 0 130 -135 0 -135 0 0 -130z"/>
<path d="M13010 4340 l0 -130 130 0 130 0 0 130 0 130 -130 0 -130 0 0 -130z"/>
<path d="M13300 4340 l0 -130 130 0 130 0 0 130 0 130 -130 0 -130 0 0 -130z"/>
<path d="M13580 4340 l0 -130 130 0 130 0 0 130 0 130 -130 0 -130 0 0 -130z"/>
<path d="M3180 4311 c-205 -46 -354 -125 -493 -264 -108 -109 -211 -287 -250
-432 -57 -211 -36 -449 57 -651 107 -230 320 -424 556 -506 441 -153 926 30
1159 436 152 266 162 625 25 899 -130 257 -355 441 -625 507 -123 31 -318 36
-429 11z m350 -267 c149 -34 311 -141 393 -257 98 -138 137 -257 137 -421 0
-126 -19 -207 -72 -316 -34 -67 -60 -103 -128 -171 -71 -72 -101 -93 -180
-132 -211 -103 -428 -101 -634 5 -118 62 -239 183 -295 298 -22 47 -49 114
-58 150 -23 88 -22 254 1 340 66 245 257 437 500 500 89 24 246 26 336 4z"/>
<path d="M3290 3770 c-225 -47 -372 -280 -316 -498 79 -310 460 -418 682 -192
118 120 152 277 94 433 -68 181 -273 295 -460 257z"/>
<path d="M4630 4200 l0 -130 125 0 125 0 0 130 0 130 -125 0 -125 0 0 -130z"/>
<path d="M4907 4324 c-4 -4 -7 -63 -7 -131 l0 -123 130 0 131 0 -3 128 -3 127
-121 3 c-66 1 -123 -1 -127 -4z"/>
<path d="M5187 4323 c-4 -3 -7 -62 -7 -130 l0 -123 125 0 125 0 0 130 0 130
-118 0 c-65 0 -122 -3 -125 -7z"/>
<path d="M5737 4324 c-4 -4 -7 -63 -7 -131 l0 -123 130 0 131 0 -3 128 -3 127
-121 3 c-66 1 -123 -1 -127 -4z"/>
<path d="M6290 4200 l0 -130 125 0 125 0 0 130 0 130 -125 0 -125 0 0 -130z"/>
<path d="M7127 4323 c-4 -3 -7 -62 -7 -130 l0 -123 125 0 125 0 0 130 0 130
-118 0 c-65 0 -122 -3 -125 -7z"/>
<path d="M7397 4324 c-4 -4 -7 -63 -7 -131 l0 -123 130 0 131 0 -3 128 -3 127
-121 3 c-66 1 -123 -1 -127 -4z"/>
<path d="M7950 4200 l0 -130 125 0 125 0 0 130 0 130 -125 0 -125 0 0 -130z"/>
<path d="M8507 4323 c-4 -3 -7 -62 -7 -130 l0 -123 125 0 125 0 0 130 0 130
-118 0 c-65 0 -122 -3 -125 -7z"/>
<path d="M8780 4200 l0 -130 125 0 125 0 0 130 0 130 -125 0 -125 0 0 -130z"/>
<path d="M9057 4324 c-4 -4 -7 -63 -7 -131 l0 -123 130 0 131 0 -3 128 -3 127
-121 3 c-66 1 -123 -1 -127 -4z"/>
<path d="M9337 4323 c-4 -3 -7 -62 -7 -130 l0 -123 125 0 125 0 0 130 0 130
-118 0 c-65 0 -122 -3 -125 -7z"/>
<path d="M11547 4323 c-4 -3 -7 -62 -7 -130 l0 -123 130 0 130 0 0 130 0 130
-123 0 c-68 0 -127 -3 -130 -7z"/>
<path d="M11827 4324 c-4 -4 -7 -63 -7 -131 l0 -123 130 0 131 0 -3 128 -3
127 -121 3 c-66 1 -123 -1 -127 -4z"/>
<path d="M12380 4200 l0 -130 125 0 125 0 0 130 0 130 -125 0 -125 0 0 -130z"/>
<path d="M1480 4050 l0 -130 135 0 135 0 0 130 0 130 -135 0 -135 0 0 -130z"/>
<path d="M1770 4050 l0 -130 130 0 130 0 0 130 0 130 -130 0 -130 0 0 -130z"/>
<path d="M2050 4050 l0 -130 135 0 135 0 0 130 0 130 -135 0 -135 0 0 -130z"/>
<path d="M4632 3923 l3 -128 123 -3 122 -3 0 131 0 130 -125 0 -126 0 3 -127z"/>
<path d="M4902 3923 l3 -128 125 0 125 0 3 128 3 127 -131 0 -131 0 3 -127z"/>
<path d="M5732 3923 l3 -128 125 0 125 0 3 128 3 127 -131 0 -131 0 3 -127z"/>
<path d="M6292 3923 l3 -128 123 -3 122 -3 0 131 0 130 -125 0 -126 0 3 -127z"/>
<path d="M6842 3923 l3 -128 123 -3 122 -3 0 131 0 130 -125 0 -126 0 3 -127z"/>
<path d="M7952 3923 l3 -128 123 -3 122 -3 0 131 0 130 -125 0 -126 0 3 -127z"/>
<path d="M9052 3923 l3 -128 125 0 125 0 3 128 3 127 -131 0 -131 0 3 -127z"/>
<path d="M9884 4037 c-2 -7 -3 -65 -2 -128 l3 -114 125 0 125 0 3 128 3 127
-126 0 c-94 0 -127 -3 -131 -13z"/>
<path d="M11547 4043 c-4 -3 -7 -59 -7 -124 0 -97 3 -118 16 -123 9 -3 67 -6
130 -6 l114 0 0 130 0 130 -123 0 c-68 0 -127 -3 -130 -7z"/>
<path d="M12380 3920 l0 -130 125 0 125 0 0 130 0 130 -125 0 -125 0 0 -130z"/>
<path d="M1480 3770 l0 -130 135 0 135 0 0 130 0 130 -135 0 -135 0 0 -130z"/>
<path d="M1770 3770 l0 -130 130 0 130 0 0 130 0 130 -130 0 -130 0 0 -130z"/>
<path d="M12720 3770 l0 -130 135 0 135 0 0 130 0 130 -135 0 -135 0 0 -130z"/>
<path d="M13010 3770 l0 -130 130 0 130 0 0 130 0 130 -130 0 -130 0 0 -130z"/>
<path d="M4900 3645 l0 -125 130 0 130 0 0 125 0 125 -130 0 -130 0 0 -125z"/>
<path d="M5180 3645 l0 -125 125 0 125 0 0 125 0 125 -125 0 -125 0 0 -125z"/>
<path d="M5730 3645 l0 -125 130 0 130 0 0 125 0 125 -130 0 -130 0 0 -125z"/>
<path d="M6560 3645 l0 -125 130 0 130 0 0 125 0 125 -130 0 -130 0 0 -125z"/>
<path d="M6840 3645 l0 -125 125 0 125 0 0 125 0 125 -125 0 -125 0 0 -125z"/>
<path d="M7120 3645 l0 -125 125 0 125 0 0 125 0 125 -125 0 -125 0 0 -125z"/>
<path d="M7390 3645 l0 -125 130 0 130 0 0 125 0 125 -130 0 -130 0 0 -125z"/>
<path d="M7670 3645 l0 -125 125 0 125 0 0 125 0 125 -125 0 -125 0 0 -125z"/>
<path d="M7950 3645 l0 -125 125 0 125 0 0 125 0 125 -125 0 -125 0 0 -125z"/>
<path d="M8220 3645 l0 -125 130 0 130 0 0 125 0 125 -130 0 -130 0 0 -125z"/>
<path d="M8500 3645 l0 -125 125 0 125 0 0 125 0 125 -125 0 -125 0 0 -125z"/>
<path d="M8780 3645 l0 -125 125 0 125 0 0 125 0 125 -125 0 -125 0 0 -125z"/>
<path d="M9050 3645 l0 -125 130 0 130 0 0 125 0 125 -130 0 -130 0 0 -125z"/>
<path d="M9880 3645 l0 -125 130 0 130 0 0 125 0 125 -130 0 -130 0 0 -125z"/>
<path d="M12100 3645 l0 -125 125 0 125 0 0 125 0 125 -125 0 -125 0 0 -125z"/>
<path d="M12380 3645 l0 -125 125 0 125 0 0 125 0 125 -125 0 -125 0 0 -125z"/>
<path d="M2050 3480 l0 -130 135 0 135 0 0 130 0 130 -135 0 -135 0 0 -130z"/>
<path d="M5467 3493 c-4 -3 -7 -62 -7 -130 l0 -123 125 0 125 0 0 130 0 130
-118 0 c-65 0 -122 -3 -125 -7z"/>
<path d="M5737 3494 c-4 -4 -7 -63 -7 -131 l0 -123 130 0 131 0 -3 128 -3 127
-121 3 c-66 1 -123 -1 -127 -4z"/>
<path d="M6017 3493 c-4 -3 -7 -62 -7 -130 l0 -123 125 0 125 0 0 130 0 130
-118 0 c-65 0 -122 -3 -125 -7z"/>
<path d="M6567 3494 c-4 -4 -7 -63 -7 -131 l0 -123 130 0 131 0 -3 128 -3 127
-121 3 c-66 1 -123 -1 -127 -4z"/>
<path d="M6847 3493 c-4 -3 -7 -62 -7 -130 l0 -123 125 0 125 0 0 130 0 130
-118 0 c-65 0 -122 -3 -125 -7z"/>
<path d="M7677 3493 c-4 -3 -7 -62 -7 -130 l0 -123 125 0 125 0 0 130 0 130
-118 0 c-65 0 -122 -3 -125 -7z"/>
<path d="M8227 3494 c-4 -4 -7 -63 -7 -131 l0 -123 130 0 131 0 -3 128 -3 127
-121 3 c-66 1 -123 -1 -127 -4z"/>
<path d="M9057 3494 c-4 -4 -7 -63 -7 -131 l0 -123 130 0 131 0 -3 128 -3 127
-121 3 c-66 1 -123 -1 -127 -4z"/>
<path d="M9337 3493 c-4 -3 -7 -62 -7 -130 l0 -123 125 0 125 0 0 130 0 130
-118 0 c-65 0 -122 -3 -125 -7z"/>
<path d="M9617 3493 c-4 -3 -7 -62 -7 -130 l0 -123 125 0 125 0 0 130 0 130
-118 0 c-65 0 -122 -3 -125 -7z"/>
<path d="M10167 3493 c-4 -3 -7 -62 -7 -130 l0 -123 125 0 125 0 0 130 0 130
-118 0 c-65 0 -122 -3 -125 -7z"/>
<path d="M10997 3493 c-4 -3 -7 -62 -7 -130 l0 -123 130 0 130 0 0 114 c0 63
-3 121 -6 130 -5 13 -26 16 -123 16 -65 0 -121 -3 -124 -7z"/>
<path d="M11270 3370 l0 -130 125 0 125 0 0 130 0 130 -125 0 -125 0 0 -130z"/>
<path d="M11552 3488 c-8 -8 -12 -50 -12 -130 l0 -118 130 0 131 0 -3 128 -3
127 -115 3 c-81 2 -119 -1 -128 -10z"/>
<path d="M12387 3493 c-4 -3 -7 -62 -7 -130 l0 -123 125 0 125 0 0 130 0 130
-118 0 c-65 0 -122 -3 -125 -7z"/>
<path d="M2052 3198 l3 -133 133 -3 132 -3 0 136 0 135 -135 0 -136 0 3 -132z"/>
<path d="M4630 3090 l0 -130 125 0 125 0 0 130 0 130 -125 0 -125 0 0 -130z"/>
<path d="M4902 3093 l3 -128 125 0 125 0 3 128 3 127 -131 0 -131 0 3 -127z"/>
<path d="M5460 3090 l0 -130 125 0 125 0 0 130 0 130 -125 0 -125 0 0 -130z"/>
<path d="M5732 3093 l3 -128 125 0 125 0 3 128 3 127 -131 0 -131 0 3 -127z"/>
<path d="M6562 3093 l3 -128 125 0 125 0 3 128 3 127 -131 0 -131 0 3 -127z"/>
<path d="M7120 3090 l0 -130 125 0 125 0 0 130 0 130 -125 0 -125 0 0 -130z"/>
<path d="M8222 3093 l3 -128 125 0 125 0 3 128 3 127 -131 0 -131 0 3 -127z"/>
<path d="M9052 3093 l3 -128 125 0 125 0 3 128 3 127 -131 0 -131 0 3 -127z"/>
<path d="M9332 3093 l3 -128 123 -3 122 -3 0 131 0 130 -125 0 -126 0 3 -127z"/>
<path d="M9610 3090 l0 -130 125 0 125 0 0 130 0 130 -125 0 -125 0 0 -130z"/>
<path d="M11270 3090 l0 -130 125 0 125 0 0 130 0 130 -125 0 -125 0 0 -130z"/>
<path d="M11822 3093 l3 -128 125 0 125 0 0 125 0 125 -128 3 -128 3 3 -128z"/>
<path d="M12100 3090 l0 -130 125 0 125 0 0 130 0 130 -125 0 -125 0 0 -130z"/>
<path d="M12380 3090 l0 -130 125 0 125 0 0 130 0 130 -125 0 -125 0 0 -130z"/>
<path d="M2050 2910 l0 -130 135 0 135 0 0 130 0 130 -135 0 -135 0 0 -130z"/>
<path d="M12720 2910 l0 -130 135 0 135 0 0 130 0 130 -135 0 -135 0 0 -130z"/>
<path d="M4900 2815 l0 -125 130 0 130 0 0 125 0 125 -130 0 -130 0 0 -125z"/>
<path d="M7120 2815 l0 -125 125 0 125 0 0 125 0 125 -125 0 -125 0 0 -125z"/>
<path d="M7670 2815 l0 -125 125 0 125 0 0 125 0 125 -125 0 -125 0 0 -125z"/>
<path d="M7950 2815 l0 -125 125 0 125 0 0 125 0 125 -125 0 -125 0 0 -125z"/>
<path d="M8500 2815 l0 -125 125 0 125 0 0 125 0 125 -125 0 -125 0 0 -125z"/>
<path d="M8780 2815 l0 -125 125 0 125 0 0 125 0 125 -125 0 -125 0 0 -125z"/>
<path d="M9050 2815 l0 -125 130 0 130 0 0 125 0 125 -130 0 -130 0 0 -125z"/>
<path d="M9610 2815 l0 -125 125 0 125 0 0 125 0 125 -125 0 -125 0 0 -125z"/>
<path d="M9880 2815 l0 -125 130 0 130 0 0 125 0 125 -130 0 -130 0 0 -125z"/>
<path d="M10160 2815 l0 -125 125 0 125 0 0 125 0 125 -125 0 -125 0 0 -125z"/>
<path d="M10990 2815 l0 -125 130 0 131 0 -3 123 -3 122 -127 3 -128 3 0 -126z"/>
<path d="M11270 2815 l0 -125 125 0 125 0 0 125 0 125 -125 0 -125 0 0 -125z"/>
<path d="M11547 2933 c-4 -3 -7 -60 -7 -125 l0 -118 130 0 130 0 0 125 0 125
-123 0 c-68 0 -127 -3 -130 -7z"/>
<path d="M5180 2535 l0 -125 125 0 125 0 0 125 0 125 -125 0 -125 0 0 -125z"/>
<path d="M5730 2535 l0 -125 130 0 130 0 0 125 0 125 -130 0 -130 0 0 -125z"/>
<path d="M6010 2535 l0 -125 125 0 125 0 0 125 0 125 -125 0 -125 0 0 -125z"/>
<path d="M6560 2535 l0 -125 130 0 130 0 0 125 0 125 -130 0 -130 0 0 -125z"/>
<path d="M6840 2535 l0 -125 125 0 125 0 0 125 0 125 -125 0 -125 0 0 -125z"/>
<path d="M7120 2535 l0 -125 125 0 125 0 0 125 0 125 -125 0 -125 0 0 -125z"/>
<path d="M7390 2535 l0 -125 130 0 130 0 0 125 0 125 -130 0 -130 0 0 -125z"/>
<path d="M8500 2535 l0 -125 125 0 125 0 0 125 0 125 -125 0 -125 0 0 -125z"/>
<path d="M10160 2535 l0 -125 125 0 125 0 0 125 0 125 -125 0 -125 0 0 -125z"/>
<path d="M10710 2535 l0 -125 130 0 130 0 0 125 0 125 -130 0 -130 0 0 -125z"/>
<path d="M10990 2535 l0 -125 130 0 131 0 -3 123 -3 122 -127 3 -128 3 0 -126z"/>
<path d="M11547 2653 c-4 -3 -7 -60 -7 -125 l0 -118 130 0 130 0 0 125 0 125
-123 0 c-68 0 -127 -3 -130 -7z"/>
<path d="M12380 2535 l0 -125 125 0 125 0 0 125 0 125 -125 0 -125 0 0 -125z"/>
<path d="M3147 2313 c-4 -3 -7 -64 -7 -135 l0 -128 135 0 135 0 0 135 0 135
-128 0 c-71 0 -132 -3 -135 -7z"/>
<path d="M3430 2185 l0 -135 130 0 130 0 0 135 0 135 -130 0 -130 0 0 -135z"/>
<path d="M3720 2185 l0 -135 130 0 130 0 0 135 0 135 -130 0 -130 0 0 -135z"/>
<path d="M4290 2185 l0 -135 130 0 130 0 0 135 0 135 -130 0 -130 0 0 -135z"/>
<path d="M4570 2185 l0 -135 135 0 136 0 -3 133 -3 132 -132 3 -133 3 0 -136z"/>
<path d="M5140 2185 l0 -135 135 0 135 0 0 135 0 135 -135 0 -135 0 0 -135z"/>
<path d="M5430 2185 l0 -135 130 0 130 0 0 135 0 135 -130 0 -130 0 0 -135z"/>
<path d="M6570 2185 l0 -135 130 0 130 0 0 135 0 135 -130 0 -130 0 0 -135z"/>
<path d="M7430 2185 l0 -135 130 0 130 0 0 135 0 135 -130 0 -130 0 0 -135z"/>
<path d="M8860 2185 l0 -135 130 0 130 0 0 135 0 135 -130 0 -130 0 0 -135z"/>
<path d="M9140 2185 l0 -135 135 0 136 0 -3 133 -3 132 -132 3 -133 3 0 -136z"/>
<path d="M9430 2185 l0 -135 130 0 130 0 0 135 0 135 -130 0 -130 0 0 -135z"/>
<path d="M9710 2185 l0 -135 135 0 135 0 0 135 0 135 -135 0 -135 0 0 -135z"/>
<path d="M10000 2185 l0 -135 130 0 130 0 0 135 0 135 -130 0 -130 0 0 -135z"/>
<path d="M10287 2313 c-4 -3 -7 -64 -7 -135 l0 -128 135 0 135 0 0 135 0 135
-128 0 c-71 0 -132 -3 -135 -7z"/>
<path d="M11710 2185 l0 -135 135 0 136 0 -3 133 -3 132 -132 3 -133 3 0 -136z"/>
<path d="M12000 2185 l0 -135 130 0 130 0 0 135 0 135 -130 0 -130 0 0 -135z"/>
<path d="M4860 1900 l0 -130 130 0 130 0 0 130 0 130 -130 0 -130 0 0 -130z"/>
<path d="M5710 1900 l0 -130 135 0 135 0 0 130 0 130 -135 0 -135 0 0 -130z"/>
<path d="M6290 1900 l0 -130 130 0 130 0 0 130 0 130 -130 0 -130 0 0 -130z"/>
<path d="M6860 1900 l0 -130 130 0 130 0 0 130 0 130 -130 0 -130 0 0 -130z"/>
<path d="M7140 1900 l0 -130 135 0 135 0 0 130 0 130 -135 0 -135 0 0 -130z"/>
<path d="M7710 1900 l0 -130 135 0 135 0 0 130 0 130 -135 0 -135 0 0 -130z"/>
<path d="M8570 1900 l0 -130 130 0 130 0 0 130 0 130 -130 0 -130 0 0 -130z"/>
<path d="M8860 1900 l0 -130 130 0 130 0 0 130 0 130 -130 0 -130 0 0 -130z"/>
<path d="M9140 1900 l0 -130 135 0 135 0 0 130 0 130 -135 0 -135 0 0 -130z"/>
<path d="M10000 1900 l0 -130 130 0 130 0 0 130 0 130 -130 0 -130 0 0 -130z"/>
<path d="M10860 1900 l0 -130 130 0 130 0 0 130 0 130 -130 0 -130 0 0 -130z"/>
<path d="M3720 1610 l0 -130 130 0 130 0 0 130 0 130 -130 0 -130 0 0 -130z"/>
<path d="M5430 1610 l0 -130 130 0 130 0 0 130 0 130 -130 0 -130 0 0 -130z"/>
<path d="M6000 1610 l0 -130 130 0 130 0 0 130 0 130 -130 0 -130 0 0 -130z"/>
<path d="M6570 1610 l0 -130 130 0 130 0 0 130 0 130 -130 0 -130 0 0 -130z"/>
<path d="M6860 1610 l0 -130 130 0 130 0 0 130 0 130 -130 0 -130 0 0 -130z"/>
<path d="M7140 1610 l0 -130 135 0 135 0 0 130 0 130 -135 0 -135 0 0 -130z"/>
<path d="M7430 1610 l0 -130 130 0 130 0 0 130 0 130 -130 0 -130 0 0 -130z"/>
<path d="M8000 1610 l0 -130 130 0 130 0 0 130 0 130 -130 0 -130 0 0 -130z"/>
<path d="M8290 1610 l0 -130 130 0 130 0 0 130 0 130 -130 0 -130 0 0 -130z"/>
<path d="M9140 1610 l0 -130 135 0 135 0 0 130 0 130 -135 0 -135 0 0 -130z"/>
<path d="M9710 1610 l0 -130 135 0 135 0 0 130 0 130 -135 0 -135 0 0 -130z"/>
<path d="M10280 1610 l0 -130 135 0 135 0 0 130 0 130 -135 0 -135 0 0 -130z"/>
<path d="M4290 1330 l0 -130 130 0 130 0 0 130 0 130 -130 0 -130 0 0 -130z"/>
<path d="M4570 1330 l0 -130 135 0 135 0 0 130 0 130 -135 0 -135 0 0 -130z"/>
<path d="M5430 1330 l0 -130 130 0 130 0 0 130 0 130 -130 0 -130 0 0 -130z"/>
<path d="M5710 1330 l0 -130 135 0 135 0 0 130 0 130 -135 0 -135 0 0 -130z"/>
<path d="M6290 1330 l0 -130 130 0 130 0 0 130 0 130 -130 0 -130 0 0 -130z"/>
<path d="M7140 1330 l0 -130 135 0 135 0 0 130 0 130 -135 0 -135 0 0 -130z"/>
<path d="M8290 1330 l0 -130 130 0 130 0 0 130 0 130 -130 0 -130 0 0 -130z"/>
<path d="M8860 1330 l0 -130 130 0 130 0 0 130 0 130 -130 0 -130 0 0 -130z"/>
<path d="M9140 1330 l0 -130 135 0 135 0 0 130 0 130 -135 0 -135 0 0 -130z"/>
<path d="M9430 1330 l0 -130 130 0 130 0 0 130 0 130 -130 0 -130 0 0 -130z"/>
<path d="M9710 1330 l0 -130 135 0 135 0 0 130 0 130 -135 0 -135 0 0 -130z"/>
<path d="M4570 1040 l0 -130 135 0 135 0 0 130 0 130 -135 0 -135 0 0 -130z"/>
<path d="M5140 1040 l0 -130 135 0 135 0 0 130 0 130 -135 0 -135 0 0 -130z"/>
<path d="M6000 1040 l0 -130 130 0 130 0 0 130 0 130 -130 0 -130 0 0 -130z"/>
<path d="M6570 1040 l0 -130 130 0 130 0 0 130 0 130 -130 0 -130 0 0 -130z"/>
<path d="M7430 1040 l0 -130 130 0 130 0 0 130 0 130 -130 0 -130 0 0 -130z"/>
<path d="M8570 1040 l0 -130 130 0 130 0 0 130 0 130 -130 0 -130 0 0 -130z"/>
<path d="M9430 1040 l0 -130 130 0 130 0 0 130 0 130 -130 0 -130 0 0 -130z"/>
<path d="M9710 1040 l0 -130 135 0 135 0 0 130 0 130 -135 0 -135 0 0 -130z"/>
<path d="M10000 1040 l0 -130 130 0 130 0 0 130 0 130 -130 0 -130 0 0 -130z"/>
<path d="M5430 755 l0 -135 130 0 130 0 0 135 0 135 -130 0 -130 0 0 -135z"/>
<path d="M5712 758 l3 -133 133 -3 132 -3 0 136 0 135 -135 0 -136 0 3 -132z"/>
<path d="M6000 755 l0 -135 130 0 130 0 0 135 0 135 -130 0 -130 0 0 -135z"/>
<path d="M6570 755 l0 -135 130 0 130 0 0 135 0 135 -130 0 -130 0 0 -135z"/>
<path d="M6860 755 l0 -135 130 0 130 0 0 135 0 135 -130 0 -130 0 0 -135z"/>
<path d="M7140 755 l0 -136 133 3 132 3 3 133 3 132 -136 0 -135 0 0 -135z"/>
<path d="M7430 755 l0 -135 130 0 130 0 0 135 0 135 -130 0 -130 0 0 -135z"/>
<path d="M7712 758 l3 -133 133 -3 132 -3 0 136 0 135 -135 0 -136 0 3 -132z"/>
<path d="M8570 755 l0 -135 130 0 130 0 0 135 0 135 -130 0 -130 0 0 -135z"/>
<path d="M9140 755 l0 -136 133 3 132 3 3 133 3 132 -136 0 -135 0 0 -135z"/>
<path d="M6860 470 l0 -130 130 0 130 0 0 130 0 130 -130 0 -130 0 0 -130z"/>
<path d="M7430 470 l0 -130 130 0 130 0 0 130 0 130 -130 0 -130 0 0 -130z"/>
<path d="M8000 470 l0 -130 130 0 130 0 0 130 0 130 -130 0 -130 0 0 -130z"/>
</g>
</svg>
