%TF.GenerationSoftware,KiCad,Pcbnew,7.0.1*%
%TF.CreationDate,2023-03-27T13:13:21-05:00*%
%TF.ProjectId,_autosave-Circuitry-Circuit-Card,5f617574-6f73-4617-9665-2d4369726375,rev?*%
%TF.SameCoordinates,Original*%
%TF.FileFunction,Drillmap*%
%TF.FilePolarity,Positive*%
%FSLAX45Y45*%
G04 Gerber Fmt 4.5, Leading zero omitted, Abs format (unit mm)*
G04 Created by KiCad (PCBNEW 7.0.1) date 2023-03-27 13:13:21*
%MOMM*%
%LPD*%
G01*
G04 APERTURE LIST*
%ADD10C,0.100000*%
%ADD11C,0.200000*%
G04 APERTURE END LIST*
D10*
X13220000Y-7620000D02*
G75*
G03*
X13220000Y-7620000I-3060000J0D01*
G01*
D11*
X7342619Y-10997524D02*
X7342619Y-10797524D01*
X7342619Y-10797524D02*
X7390238Y-10797524D01*
X7390238Y-10797524D02*
X7418809Y-10807048D01*
X7418809Y-10807048D02*
X7437857Y-10826095D01*
X7437857Y-10826095D02*
X7447381Y-10845143D01*
X7447381Y-10845143D02*
X7456905Y-10883238D01*
X7456905Y-10883238D02*
X7456905Y-10911810D01*
X7456905Y-10911810D02*
X7447381Y-10949905D01*
X7447381Y-10949905D02*
X7437857Y-10968952D01*
X7437857Y-10968952D02*
X7418809Y-10988000D01*
X7418809Y-10988000D02*
X7390238Y-10997524D01*
X7390238Y-10997524D02*
X7342619Y-10997524D01*
X7542619Y-10997524D02*
X7542619Y-10864190D01*
X7542619Y-10902286D02*
X7552143Y-10883238D01*
X7552143Y-10883238D02*
X7561667Y-10873714D01*
X7561667Y-10873714D02*
X7580714Y-10864190D01*
X7580714Y-10864190D02*
X7599762Y-10864190D01*
X7666428Y-10997524D02*
X7666428Y-10864190D01*
X7666428Y-10797524D02*
X7656905Y-10807048D01*
X7656905Y-10807048D02*
X7666428Y-10816571D01*
X7666428Y-10816571D02*
X7675952Y-10807048D01*
X7675952Y-10807048D02*
X7666428Y-10797524D01*
X7666428Y-10797524D02*
X7666428Y-10816571D01*
X7790238Y-10997524D02*
X7771190Y-10988000D01*
X7771190Y-10988000D02*
X7761667Y-10968952D01*
X7761667Y-10968952D02*
X7761667Y-10797524D01*
X7895000Y-10997524D02*
X7875952Y-10988000D01*
X7875952Y-10988000D02*
X7866428Y-10968952D01*
X7866428Y-10968952D02*
X7866428Y-10797524D01*
X8123571Y-10997524D02*
X8123571Y-10797524D01*
X8123571Y-10797524D02*
X8190238Y-10940381D01*
X8190238Y-10940381D02*
X8256905Y-10797524D01*
X8256905Y-10797524D02*
X8256905Y-10997524D01*
X8437857Y-10997524D02*
X8437857Y-10892762D01*
X8437857Y-10892762D02*
X8428333Y-10873714D01*
X8428333Y-10873714D02*
X8409286Y-10864190D01*
X8409286Y-10864190D02*
X8371190Y-10864190D01*
X8371190Y-10864190D02*
X8352143Y-10873714D01*
X8437857Y-10988000D02*
X8418810Y-10997524D01*
X8418810Y-10997524D02*
X8371190Y-10997524D01*
X8371190Y-10997524D02*
X8352143Y-10988000D01*
X8352143Y-10988000D02*
X8342619Y-10968952D01*
X8342619Y-10968952D02*
X8342619Y-10949905D01*
X8342619Y-10949905D02*
X8352143Y-10930857D01*
X8352143Y-10930857D02*
X8371190Y-10921333D01*
X8371190Y-10921333D02*
X8418810Y-10921333D01*
X8418810Y-10921333D02*
X8437857Y-10911810D01*
X8533095Y-10864190D02*
X8533095Y-11064190D01*
X8533095Y-10873714D02*
X8552143Y-10864190D01*
X8552143Y-10864190D02*
X8590238Y-10864190D01*
X8590238Y-10864190D02*
X8609286Y-10873714D01*
X8609286Y-10873714D02*
X8618810Y-10883238D01*
X8618810Y-10883238D02*
X8628333Y-10902286D01*
X8628333Y-10902286D02*
X8628333Y-10959429D01*
X8628333Y-10959429D02*
X8618810Y-10978476D01*
X8618810Y-10978476D02*
X8609286Y-10988000D01*
X8609286Y-10988000D02*
X8590238Y-10997524D01*
X8590238Y-10997524D02*
X8552143Y-10997524D01*
X8552143Y-10997524D02*
X8533095Y-10988000D01*
X8714048Y-10978476D02*
X8723571Y-10988000D01*
X8723571Y-10988000D02*
X8714048Y-10997524D01*
X8714048Y-10997524D02*
X8704524Y-10988000D01*
X8704524Y-10988000D02*
X8714048Y-10978476D01*
X8714048Y-10978476D02*
X8714048Y-10997524D01*
X8714048Y-10873714D02*
X8723571Y-10883238D01*
X8723571Y-10883238D02*
X8714048Y-10892762D01*
X8714048Y-10892762D02*
X8704524Y-10883238D01*
X8704524Y-10883238D02*
X8714048Y-10873714D01*
X8714048Y-10873714D02*
X8714048Y-10892762D01*
M02*
